<?xml version="1.0" standalone="no"?>
<!DOCTYPE svg PUBLIC "-//W3C//DTD SVG 20010904//EN"
 "http://www.w3.org/TR/2001/REC-SVG-20010904/DTD/svg10.dtd">
<svg version="1.0" xmlns="http://www.w3.org/2000/svg"
 width="4000.000000pt" height="4000.000000pt" viewBox="0 0 4000.000000 4000.000000"
 preserveAspectRatio="xMidYMid meet">
<metadata>
Created by potrace 1.16, written by Peter Selinger 2001-2019
</metadata>
<g transform="translate(0.000000,4000.000000) scale(0.100000,-0.100000)"
fill="#000000" stroke="none">
<path d="M20560 34479 c-509 -41 -1016 -153 -1465 -324 -1471 -562 -2615
-1763 -3102 -3257 -54 -165 -55 -168 -83 -168 -86 0 -274 -56 -405 -121 -327
-161 -572 -467 -665 -828 -44 -172 -44 -237 -6 -846 20 -308 41 -596 47 -639
72 -525 497 -966 1022 -1060 45 -8 124 -18 174 -21 l93 -7 27 -62 c53 -122
202 -404 288 -546 217 -358 435 -638 745 -954 155 -159 155 -159 115 -152 -22
3 -125 17 -230 31 -850 109 -1555 10 -1973 -278 -86 -59 -244 -203 -282 -257
-14 -19 -53 -73 -86 -120 -587 -815 -1079 -2588 -1164 -4195 -22 -424 -4 -877
46 -1130 93 -468 417 -881 920 -1173 325 -188 770 -350 1286 -466 22 -5 37
-26 85 -117 239 -460 622 -795 1297 -1133 110 -56 252 -124 313 -151 62 -28
111 -53 110 -57 -1 -4 -92 -71 -202 -149 -398 -282 -712 -530 -1080 -854 -88
-78 -165 -144 -172 -148 -7 -4 -47 16 -95 47 -287 187 -631 309 -1018 363
-155 21 -553 24 -715 5 -719 -84 -1449 -358 -2289 -860 -230 -138 -267 -166
-299 -226 -28 -53 -29 -155 -3 -208 26 -54 79 -104 128 -121 24 -8 162 -38
308 -66 862 -167 1567 -415 2040 -718 94 -61 260 -184 260 -192 0 -3 -149
-107 -330 -230 -182 -124 -367 -257 -412 -295 -97 -84 -202 -218 -262 -336
-128 -249 -161 -483 -117 -820 10 -74 17 -136 17 -137 -1 -1 -40 21 -86 49
-429 258 -880 390 -1345 390 -289 1 -527 -37 -800 -127 -436 -144 -787 -357
-1091 -660 -279 -278 -443 -515 -779 -1130 -272 -498 -413 -730 -583 -963
-363 -498 -798 -887 -1372 -1227 -134 -79 -456 -244 -585 -300 -150 -64 -187
-104 -187 -197 0 -60 34 -117 85 -141 56 -27 115 -21 209 19 698 300 1429 443
2075 405 462 -26 717 -77 1474 -291 592 -168 827 -220 1123 -251 150 -15 504
-6 641 16 234 37 477 111 705 214 707 321 1198 883 1412 1620 18 61 33 109 34
108 1 -1 36 -54 79 -117 255 -377 419 -535 668 -643 156 -67 258 -89 442 -94
157 -4 167 -3 540 56 209 33 382 58 384 55 2 -2 -8 -62 -22 -134 -121 -581
-507 -1354 -1069 -2138 -60 -84 -116 -168 -124 -187 -21 -51 -18 -137 7 -190
44 -94 137 -143 249 -132 86 9 483 99 700 158 1489 406 2441 1148 2768 2159
17 52 36 114 42 136 l10 42 198 6 c681 22 1248 77 1877 182 1766 294 3618 954
5305 1892 822 457 1612 997 2283 1562 115 96 221 184 235 195 118 88 729 686
981 960 894 968 1601 2053 2076 3180 177 421 355 956 374 1126 28 249 -83 501
-285 645 -109 78 -418 250 -679 379 -1166 576 -2521 937 -3935 1049 -270 22
-542 36 -685 36 l-121 0 -119 95 c-249 199 -643 440 -1090 667 -266 136 -639
315 -816 394 l-156 69 -11 72 c-8 62 -7 81 9 132 72 233 33 516 -100 731 -26
42 -31 67 -65 340 -22 169 -46 321 -58 355 -35 108 -104 208 -190 276 l-48 38
58 6 c202 23 398 49 532 70 1149 185 2243 591 3180 1180 888 557 1580 1274
1789 1851 68 188 140 519 173 799 19 165 16 571 -5 720 -94 646 -387 1053
-833 1156 -322 74 -710 -90 -1223 -520 -103 -86 -115 -94 -125 -77 -104 173
-233 323 -337 389 -157 100 -354 103 -493 8 -128 -88 -235 -308 -296 -610 -25
-126 -49 -307 -55 -434 -10 -168 -6 -159 -98 -231 -314 -245 -755 -492 -1256
-705 l-74 -31 26 32 c423 525 730 1088 924 1694 l48 152 75 12 c182 30 395
117 535 219 83 61 205 179 264 254 161 209 249 451 258 712 6 189 -59 1190
-86 1320 -52 250 -172 466 -357 647 -223 217 -494 336 -810 356 l-104 7 -55
119 c-379 825 -1034 1592 -1805 2115 -709 481 -1499 768 -2380 866 -172 20
-747 28 -920 14z m702 -380 c1073 -74 2058 -481 2852 -1180 131 -116 337 -322
296 -297 -603 364 -1409 637 -2235 757 -1246 182 -2586 74 -3645 -295 -401
-139 -820 -338 -1115 -529 -30 -20 -30 -20 -16 0 29 40 291 293 402 389 747
644 1674 1043 2649 1140 85 9 180 17 210 19 136 8 462 6 602 -4z m43 -1019
c1021 -46 1858 -246 2610 -625 331 -166 592 -337 855 -560 108 -92 299 -280
380 -375 49 -58 43 -54 -51 36 -519 495 -1143 831 -1954 1053 -809 221 -1831
306 -2825 236 -1371 -97 -2459 -461 -3237 -1082 -173 -138 -302 -264 -482
-468 -37 -43 -39 -44 -15 -10 118 169 400 467 590 626 737 611 1734 998 2909
1128 402 45 824 59 1220 41z m-415 -1031 c30 -5 61 -15 68 -23 12 -11 -4 -19
-105 -51 -311 -97 -553 -194 -878 -355 -748 -369 -1313 -819 -1728 -1378 -148
-200 -255 -386 -402 -702 -312 -668 -560 -1332 -700 -1875 -20 -76 -37 -141
-39 -142 -11 -11 -102 363 -145 594 -167 889 -120 1696 131 2256 191 427 461
700 993 1002 496 283 1102 494 1745 609 409 73 852 100 1060 65z m5130 -1111
c227 -70 434 -252 535 -470 65 -142 73 -191 106 -703 40 -610 42 -771 11 -883
-55 -203 -168 -371 -331 -492 -97 -71 -291 -160 -291 -133 0 5 11 74 24 154
114 671 88 1433 -70 2089 -30 127 -65 251 -119 423 l-15 49 43 -7 c23 -4 71
-16 107 -27z m-1458 -627 c175 -68 311 -245 375 -487 21 -83 26 -122 26 -239
1 -155 -12 -246 -53 -380 -37 -119 -40 -126 -53 -118 -6 3 -7 1 -3 -5 8 -14
-34 -108 -76 -171 -118 -175 -268 -284 -437 -319 -107 -22 -204 -9 -304 42
-97 48 -156 101 -220 199 -66 100 -103 191 -129 317 -28 135 -21 373 15 511
86 328 281 571 526 657 88 30 246 27 333 -7z m-8726 -18 c-121 -695 -126
-1264 -15 -1918 40 -239 99 -478 185 -747 7 -24 -22 -24 -111 2 -302 86 -539
328 -616 628 -21 84 -27 151 -69 787 -30 474 -30 538 6 665 78 275 277 491
548 596 34 13 65 23 70 24 5 0 6 -17 2 -37z m7864 -2217 c62 -32 101 -67 136
-122 104 -162 78 -381 -63 -534 -70 -76 -146 -114 -240 -118 -94 -5 -158 16
-222 74 -160 144 -161 419 -4 594 52 58 98 90 164 114 57 21 180 16 229 -8z
m5152 -286 c181 -56 336 -229 424 -474 126 -354 135 -846 23 -1350 -73 -329
-126 -463 -269 -676 -366 -545 -1073 -1130 -1915 -1583 -322 -173 -826 -397
-854 -380 -31 19 -127 141 -170 217 -52 91 -129 263 -164 366 -153 450 -266
1130 -302 1820 l-7 115 144 75 c355 186 699 416 904 604 l71 65 7 143 c21 434
106 848 190 917 63 52 213 -109 336 -359 58 -120 74 -170 95 -303 40 -258 172
-491 340 -599 33 -22 61 -35 63 -29 2 5 -15 110 -37 233 -37 206 -51 304 -65
464 l-5 61 127 116 c393 358 747 574 948 576 29 1 81 -8 116 -19z m-3552
-2251 c50 -695 152 -1269 307 -1724 62 -184 176 -424 257 -540 30 -44 52 -83
48 -86 -11 -10 -236 -82 -420 -134 -410 -116 -871 -208 -1302 -260 -178 -21
-463 -45 -541 -45 l-66 0 -13 63 c-93 465 -216 950 -256 1015 -17 26 -74 31
-97 7 -45 -45 -32 -809 22 -1300 5 -44 8 -81 7 -82 -10 -10 -601 -23 -1073
-23 l-572 0 -243 208 c-207 177 -432 374 -568 496 -329 297 -507 447 -671 571
-127 95 -164 107 -195 60 -23 -36 -11 -70 77 -225 84 -148 193 -309 298 -440
96 -120 417 -448 581 -593 139 -122 443 -367 623 -502 l117 -88 -87 -28 c-352
-117 -692 -389 -970 -779 -196 -275 -395 -664 -525 -1030 -24 -66 -46 -120
-50 -120 -10 0 -236 179 -378 299 -190 161 -340 311 -588 586 -406 450 -707
735 -776 735 -73 0 -83 -57 -36 -201 17 -50 29 -93 28 -94 -2 -2 -88 4 -193
11 -661 49 -1248 142 -1712 271 -106 30 -133 41 -133 55 0 29 107 390 177 598
255 758 578 1423 1030 2120 199 307 465 714 473 723 4 5 63 -30 132 -77 354
-242 786 -462 1173 -599 911 -322 1869 -389 2812 -197 791 161 1542 512 2176
1017 114 91 123 96 255 142 242 86 647 245 812 320 24 11 46 19 47 17 1 -1 7
-67 13 -147z m-1510 -143 c0 -9 -352 -237 -460 -298 -620 -352 -1264 -551
-1990 -614 -229 -20 -709 -15 -925 11 -569 67 -1072 211 -1570 451 -121 58
-307 159 -400 217 -125 77 -306 199 -302 203 2 2 44 -14 93 -37 444 -205 1047
-392 1564 -483 681 -121 1334 -127 2065 -20 614 90 1290 286 1820 528 107 49
105 48 105 42z m-6999 -216 c190 -15 622 -73 637 -86 2 -1 -41 -63 -97 -137
-121 -163 -260 -373 -370 -562 -45 -77 -85 -143 -89 -147 -5 -5 -89 30 -188
78 -214 103 -679 321 -1039 486 -143 66 -263 123 -268 127 -12 12 161 98 276
136 132 44 297 79 443 94 60 6 123 13 139 15 71 8 432 5 556 -4z m-1508 -584
c608 -214 1472 -529 1484 -540 2 -1 -29 -63 -68 -137 -397 -750 -707 -1534
-874 -2211 -12 -48 -25 -74 -47 -95 l-31 -28 7 55 c23 206 17 276 -38 395 -28
61 -123 167 -181 201 -36 20 -707 291 -885 356 -78 29 -219 35 -293 14 -31 -9
-63 -19 -71 -22 -11 -4 -3 41 35 188 160 623 378 1216 584 1590 60 109 181
298 190 298 3 0 87 -29 188 -64z m-356 -2491 c483 -191 483 -190 483 -293 0
-71 -31 -323 -65 -532 -97 -590 -256 -997 -443 -1135 -113 -84 -268 -87 -440
-10 -115 52 -204 174 -251 345 -95 344 -52 958 110 1599 36 146 72 189 156
190 20 1 200 -65 450 -164z m8863 14 c103 -46 136 -105 161 -284 10 -71 19
-137 19 -145 0 -13 -16 -16 -92 -16 -104 0 -471 -38 -533 -55 -96 -27 -220
-111 -284 -194 l-35 -44 -95 66 c-260 181 -583 409 -731 517 l-165 121 380 7
c403 7 910 25 1060 37 176 15 266 12 315 -10z m-1642 -587 c257 -184 437 -309
1082 -749 875 -596 1191 -823 1544 -1106 464 -373 736 -650 841 -857 114 -226
79 -381 -153 -679 -171 -219 -385 -387 -667 -522 -267 -127 -515 -179 -761
-158 -180 16 -327 70 -496 185 -190 130 -307 245 -502 494 -191 246 -381 432
-504 494 -28 14 -166 71 -305 125 -598 233 -1042 443 -1494 707 -150 88 -381
232 -424 265 l-24 18 53 158 c30 87 76 212 104 278 68 163 213 447 293 575
155 246 358 477 540 613 199 149 470 251 683 256 51 1 56 -1 190 -97z m1806
-158 c166 -57 292 -328 257 -554 -12 -77 -49 -181 -66 -187 -6 -2 -77 43 -158
99 -81 57 -210 146 -287 198 -156 106 -146 88 -113 210 51 187 209 288 367
234z m-7863 -88 c527 -169 1290 -290 2126 -337 l212 -12 34 -51 c105 -158 358
-436 561 -616 46 -41 85 -78 85 -81 2 -16 -414 -77 -729 -106 -234 -21 -905
-24 -1115 -5 -511 47 -852 128 -1126 269 -188 97 -312 212 -365 340 -18 45
-24 77 -24 144 0 98 16 162 67 264 47 93 142 225 162 225 3 0 54 -16 112 -34z
m-542 -886 l33 -50 -11 -167 c-28 -437 -23 -751 20 -1128 21 -189 72 -466 114
-623 14 -51 25 -95 25 -97 0 -5 -119 28 -275 77 -500 154 -930 405 -1151 669
-210 252 -289 477 -309 884 l-6 120 32 -40 c129 -158 263 -242 471 -294 344
-88 636 36 845 356 52 80 125 225 154 306 7 20 15 37 19 37 3 0 20 -23 39 -50z
m686 -462 c555 -200 1422 -268 2305 -182 248 24 671 92 742 119 14 6 17 -12
23 -132 4 -76 13 -165 22 -198 46 -186 202 -336 393 -380 36 -8 245 -26 470
-39 l405 -25 175 -96 c297 -162 726 -365 1048 -496 70 -28 80 -34 61 -41 -16
-6 -39 2 -93 31 -218 120 -542 230 -816 275 -53 9 -162 20 -244 26 -184 11
-215 3 -216 -61 0 -14 8 -33 18 -42 9 -8 91 -43 182 -77 91 -34 233 -92 315
-128 l150 -67 -100 -12 c-602 -75 -1159 -367 -1558 -819 -315 -357 -511 -775
-589 -1255 l-22 -136 -86 69 c-173 141 -385 256 -929 503 -519 236 -691 325
-928 481 -348 229 -539 435 -696 749 -170 342 -278 791 -317 1325 -11 144 -14
671 -4 706 6 21 8 21 92 -18 48 -22 137 -58 197 -80z m3715 -427 l45 -33 -100
7 c-74 4 -112 12 -145 29 -59 29 -97 91 -102 167 l-4 57 130 -98 c72 -53 151
-111 176 -129z m5898 -189 c89 -53 162 -100 162 -104 0 -4 -44 -8 -97 -8 l-98
1 -35 46 c-19 26 -71 85 -115 132 l-80 85 50 -28 c28 -16 123 -72 213 -124z
m497 -598 c313 -481 628 -1032 910 -1589 602 -1191 1063 -2443 1364 -3710 112
-469 239 -1099 228 -1128 -7 -19 -199 -190 -413 -368 -1174 -979 -2600 -1811
-4195 -2450 -2215 -886 -4479 -1243 -6456 -1019 -453 51 -1078 176 -1134 226
-35 31 -235 278 -353 434 -159 213 -479 703 -465 713 2 2 49 14 104 26 344 81
711 265 1015 509 121 97 329 306 445 445 240 289 447 627 584 955 l31 73 -68
30 c-203 92 -376 152 -604 210 -313 79 -575 112 -888 113 -242 0 -368 -12
-583 -54 -251 -51 -569 -169 -748 -280 -27 -16 -53 -30 -58 -30 -4 0 -14 26
-20 58 -78 380 -119 689 -142 1068 l-11 191 52 84 c526 844 1509 1848 2580
2635 164 120 215 156 447 313 l122 82 43 -19 c76 -33 268 -141 355 -199 213
-142 319 -308 380 -593 37 -172 42 -476 15 -890 -32 -490 -34 -543 -23 -730
32 -516 147 -936 369 -1345 375 -692 1017 -1127 1781 -1206 159 -16 455 -7
596 20 347 65 612 185 869 391 218 176 362 469 384 783 l7 99 70 -63 c358
-319 837 -541 1325 -614 154 -23 411 -30 570 -16 941 83 1749 667 2119 1531
94 221 157 456 187 700 32 263 8 636 -57 895 -113 446 -327 834 -638 1157
-432 449 -1008 718 -1644 769 -591 47 -1200 -132 -1699 -500 -62 -46 -95 -65
-100 -58 -4 7 -8 43 -8 82 0 166 -62 525 -122 714 -83 261 -172 452 -297 638
-78 116 -225 291 -290 346 -22 18 -28 29 -19 32 7 3 49 16 93 30 l80 24 69
-67 c38 -37 139 -155 224 -262 182 -228 299 -352 434 -461 246 -198 447 -300
686 -349 635 -129 1443 207 1908 795 156 197 237 346 281 514 21 83 24 111 20
206 -3 61 -12 134 -20 162 -8 29 -12 55 -9 58 3 3 59 5 124 5 l118 0 75 -116z
m835 95 c1416 -80 2814 -430 3980 -995 323 -157 592 -310 674 -383 16 -14 25
-19 21 -11 -4 8 6 2 24 -15 29 -27 96 -143 87 -152 -8 -9 -106 59 -99 69 3 6
1 8 -5 5 -15 -10 -43 3 -35 16 3 5 1 7 -5 3 -10 -6 -109 49 -124 69 -4 5 -8 7
-8 3 0 -10 -32 5 -250 119 -1151 600 -2586 990 -4040 1098 -308 23 -347 25
-450 26 -52 1 -102 5 -111 10 -8 4 -37 42 -62 84 l-48 77 138 -7 c76 -3 217
-10 313 -16z m-5610 -703 c185 -35 227 -57 384 -207 179 -171 286 -318 396
-544 178 -366 255 -707 255 -1135 0 -288 -24 -464 -95 -684 -70 -216 -120
-301 -340 -568 -144 -173 -169 -199 -247 -251 -263 -174 -526 -289 -764 -333
-128 -24 -406 -24 -543 -1 -54 10 -101 15 -103 13 -11 -11 89 -103 171 -157
166 -110 316 -151 546 -152 213 0 416 44 616 133 53 24 69 28 76 18 73 -109
257 -481 336 -678 161 -401 229 -711 219 -1000 -7 -222 -50 -359 -153 -491
-124 -158 -425 -325 -692 -384 -571 -127 -1166 23 -1620 408 -343 291 -601
758 -712 1292 -64 310 -75 600 -39 1097 29 405 29 736 0 924 -11 78 -35 188
-52 245 l-31 104 6 185 c11 371 79 663 220 955 112 232 218 385 395 567 192
200 366 326 616 448 219 107 426 173 630 199 44 6 94 13 110 15 59 8 341 -4
415 -18z m3350 -1582 c447 -65 868 -270 1187 -580 98 -95 98 -95 28 -42 -326
252 -683 406 -1100 475 -156 26 -545 25 -695 -1 -525 -91 -957 -311 -1314
-671 -73 -73 -98 -93 -93 -75 3 14 11 51 17 84 11 55 17 64 123 173 61 63 150
145 197 183 347 276 775 442 1220 474 93 6 319 -4 430 -20z m-35 -824 c465
-96 828 -419 983 -875 48 -140 65 -264 59 -440 -11 -331 -129 -612 -357 -849
-193 -200 -419 -323 -701 -382 -104 -22 -341 -25 -449 -5 -463 83 -839 395
-1003 831 -56 151 -71 242 -72 435 0 247 32 391 134 596 193 389 572 653 1017
709 96 12 282 3 389 -20z m-9877 -381 c299 -32 581 -121 826 -261 l88 -51 -59
-59 -59 -58 -91 39 c-188 82 -427 144 -663 173 -134 16 -482 16 -625 0 -515
-59 -1014 -213 -1599 -495 l-168 -81 -112 23 c-61 12 -115 26 -119 31 -5 4 20
24 55 43 729 405 1383 636 1968 696 123 12 445 13 558 0z m-468 -2710 c28
-305 70 -577 136 -873 19 -87 34 -159 32 -161 -81 -65 -249 -214 -332 -294
-93 -91 -311 -333 -384 -425 -12 -16 -24 -27 -26 -25 -6 6 -62 231 -91 362
-52 244 -105 598 -105 708 0 206 92 422 241 569 55 54 497 365 506 356 2 -2
12 -99 23 -217z m2191 -819 c215 -22 619 -106 727 -153 30 -12 32 -15 18 -29
-8 -9 -12 -19 -8 -23 4 -3 -4 -4 -18 -1 -112 26 -358 70 -487 87 -208 28 -559
30 -743 5 -480 -65 -864 -235 -1280 -567 -209 -167 -437 -393 -628 -624 -178
-215 -196 -235 -219 -235 -13 0 -23 4 -23 10 0 5 -7 7 -16 3 -14 -5 -15 -3 -4
18 20 38 125 181 218 297 363 453 741 783 1132 986 242 125 461 189 785 229
68 9 450 6 546 -3z m-4449 -206 c388 -54 765 -216 1129 -487 l106 -78 42 -165
c24 -91 61 -223 83 -293 l40 -127 -89 -150 c-114 -190 -149 -252 -143 -257 5
-4 329 -100 395 -117 l40 -10 103 -212 c56 -117 102 -225 102 -239 0 -90 -65
-364 -132 -559 -49 -142 -151 -350 -172 -350 -5 0 -3 7 4 15 9 11 10 19 3 26
-18 18 -35 -14 -19 -36 12 -16 11 -24 -6 -57 -11 -21 -21 -38 -23 -38 -2 0 -2
14 -1 30 2 21 -2 29 -10 26 -8 -3 -11 1 -7 10 8 21 -9 17 -42 -12 -18 -15 -23
-23 -12 -20 11 4 16 2 12 -5 -4 -6 -14 -8 -22 -5 -16 6 -75 -33 -67 -45 2 -4
-1 -11 -7 -15 -8 -4 -9 -3 -5 4 13 21 -4 13 -97 -48 -267 -177 -676 -330
-1002 -376 -162 -22 -462 -25 -475 -4 -6 9 -10 10 -10 3 0 -8 -15 -11 -42 -9
-24 2 -55 4 -69 4 -16 1 -31 11 -39 27 -7 14 -23 26 -34 26 -18 2 -17 2 3 6
14 3 20 8 13 12 -6 4 -7 12 -3 20 6 9 12 5 22 -18 16 -36 44 -44 30 -8 -5 12
-10 27 -12 32 -2 6 -8 9 -13 7 -5 -2 -6 4 -3 13 4 8 2 15 -3 15 -6 0 -10 7
-10 15 0 8 -7 15 -15 15 -8 0 -15 -4 -15 -10 0 -21 -17 -9 -33 23 -8 17 -29
60 -46 93 -35 69 -38 82 -16 64 8 -7 15 -19 15 -26 0 -8 4 -14 10 -14 5 0 9
-3 8 -7 -3 -13 42 -93 52 -93 6 0 2 17 -9 38 -13 26 -16 43 -10 53 8 12 10 12
18 -1 6 -8 13 -11 18 -7 4 5 1 12 -7 17 -15 9 -16 13 -19 51 -1 19 -2 19 -18
4 -13 -13 -14 -18 -3 -25 7 -4 9 -13 6 -19 -10 -15 -26 -4 -26 17 0 9 -12 29
-27 44 -21 22 -25 31 -14 37 9 6 7 10 -8 14 -12 3 -21 13 -21 25 0 21 -26 49
-37 38 -3 -3 1 -14 10 -24 10 -10 17 -25 17 -33 0 -8 7 -24 15 -36 8 -12 11
-24 6 -27 -5 -3 -12 5 -15 19 -4 14 -10 25 -15 25 -11 0 -41 57 -41 76 0 7 -8
13 -17 12 -10 0 -32 5 -50 10 -17 6 -34 8 -37 5 -3 -3 -11 -1 -18 5 -14 11
-30 15 -273 60 -269 51 -395 64 -657 69 -461 10 -738 -39 -1213 -212 -11 -4
32 21 95 55 395 214 666 433 962 778 80 92 308 413 308 432 0 4 7 13 15 20 9
7 14 19 11 27 -3 8 -2 12 3 9 12 -8 53 63 45 76 -4 6 -2 8 3 5 13 -8 26 20 16
35 -3 6 -2 8 4 5 5 -3 17 7 27 24 9 16 13 29 8 29 -13 0 -29 42 -24 63 2 9 8
17 13 17 6 0 7 -9 4 -20 -5 -15 -2 -20 11 -20 14 0 15 -2 3 -17 -12 -14 -12
-16 1 -11 8 2 17 15 21 29 4 13 8 20 8 14 1 -5 6 -2 12 8 7 12 6 23 -4 37 -14
20 -14 20 -14 -5 0 -15 -6 -32 -13 -38 -10 -9 -12 -9 -8 3 2 8 -7 25 -20 38
-20 20 -23 20 -22 5 6 -55 -14 -54 -24 1 -4 19 -12 37 -19 39 -7 2 -9 8 -4 12
4 5 14 0 22 -11 15 -20 18 -13 9 24 -4 15 -14 22 -29 22 -30 0 -55 10 -55 21
0 5 14 9 32 9 30 0 31 0 13 20 -17 19 -19 19 -31 2 -12 -15 -13 -16 -14 0 0 9
-3 25 -6 35 -5 15 -4 16 5 3 9 -12 10 -6 5 25 -4 22 -11 42 -15 43 -5 2 -7 8
-3 13 7 12 -7 11 -26 -1 -12 -8 -12 -10 -1 -10 8 0 12 -3 8 -6 -3 -3 -14 -1
-24 5 -10 6 -14 11 -9 11 5 0 4 6 -1 13 -6 6 -13 28 -17 47 -4 26 -3 31 5 20
8 -12 9 -11 6 5 -3 11 -8 32 -11 48 -4 15 -16 37 -27 48 -11 11 -25 34 -31 50
-9 28 -28 40 -28 19 0 -5 -7 -10 -15 -10 -8 0 -15 9 -15 20 0 11 -5 20 -10 20
-6 0 -20 21 -31 48 -11 26 -27 60 -35 76 -11 24 -12 31 -2 38 8 6 4 7 -12 3
-19 -6 -22 -5 -14 5 7 7 21 9 34 5 18 -6 20 -9 9 -16 -11 -7 -8 -19 18 -66 17
-32 37 -59 43 -61 9 -3 9 1 1 16 -11 20 -6 52 8 52 4 0 13 -12 20 -27 37 -79
46 -94 49 -84 5 15 -46 121 -59 121 -6 0 -7 6 -4 13 4 6 0 4 -7 -5 -10 -11
-19 -14 -29 -7 -8 5 -10 9 -5 9 6 0 2 6 -9 13 -10 8 -15 19 -11 25 3 6 2 13
-3 17 -6 3 -7 13 -4 21 5 12 7 13 14 3 4 -8 11 -10 15 -6 4 4 2 13 -4 19 -9 9
-15 9 -24 0 -15 -15 -32 -16 -23 -2 11 18 -2 11 -36 -21 -19 -17 -28 -28 -20
-23 9 4 12 3 7 -4 -4 -6 -13 -9 -20 -6 -12 5 -231 -202 -303 -286 -195 -230
-337 -463 -673 -1105 -150 -286 -378 -667 -452 -755 -62 -75 -68 -82 -68 -88
0 -4 -24 -36 -53 -72 -38 -46 -59 -64 -73 -62 -15 3 -16 1 -7 -9 17 -17 -60
-110 -85 -103 -13 4 -14 3 -4 -4 10 -7 8 -16 -13 -41 -15 -17 -31 -28 -36 -25
-5 3 -8 1 -7 -5 4 -14 -112 -142 -123 -135 -5 3 -13 -5 -18 -18 -5 -13 -19
-32 -32 -43 -13 -12 -19 -14 -14 -5 7 12 6 13 -6 4 -16 -13 -99 -23 -99 -13 0
4 -7 10 -16 13 -8 3 -12 2 -9 -4 4 -6 -7 -10 -24 -10 -17 0 -31 -5 -31 -10 0
-7 -6 -7 -18 -1 -10 6 -24 6 -32 1 -8 -5 -17 -7 -21 -4 -4 2 -10 0 -14 -6 -3
-5 -13 -10 -21 -10 -9 0 13 23 48 50 35 28 72 58 83 67 11 10 20 15 21 13 1
-3 13 10 29 28 22 26 30 30 42 21 8 -7 13 -8 11 -2 -2 6 7 25 20 42 18 24 28
30 52 27 17 -2 27 1 24 6 -3 5 -13 7 -21 3 -14 -5 -14 -3 -2 12 33 45 53 62
63 56 6 -3 8 -2 3 2 -9 11 23 46 35 39 4 -3 7 0 6 8 -2 7 3 12 9 11 7 -2 12 3
10 10 -1 6 5 11 13 9 8 -2 12 0 7 4 -9 10 43 65 55 58 5 -3 7 0 6 7 -2 7 7 18
19 24 13 7 20 14 18 17 -3 3 1 8 10 12 9 3 13 2 10 -3 -3 -5 -1 -12 4 -16 6
-3 8 5 6 17 -3 15 5 34 21 53 14 17 22 24 18 16 -5 -9 -3 -12 5 -7 6 4 9 11 7
15 -3 3 28 48 69 98 281 351 443 604 765 1198 200 368 314 560 444 744 261
368 545 613 931 801 256 125 466 193 715 231 153 23 449 25 602 3z m2842
-2762 c202 -74 362 -80 689 -28 l208 32 76 -93 c42 -51 74 -95 72 -97 -6 -4
-461 -75 -534 -82 -82 -9 -219 11 -313 44 -176 63 -288 149 -432 335 -7 10 23
-4 68 -31 46 -28 120 -64 166 -80z"/>
</g>
</svg>
