<?xml version="1.0" standalone="no"?>
<!DOCTYPE svg PUBLIC "-//W3C//DTD SVG 20010904//EN"
 "http://www.w3.org/TR/2001/REC-SVG-20010904/DTD/svg10.dtd">
<svg version="1.0" xmlns="http://www.w3.org/2000/svg"
 width="600.000000pt" height="600.000000pt" viewBox="0 0 600.000000 600.000000"
 preserveAspectRatio="xMidYMid meet">

<g transform="translate(0.000000,600.000000) scale(0.100000,-0.100000)"
fill="#000000" stroke="none">
<path d="M2925 5861 c-50 -23 -70 -45 -90 -101 -14 -40 -14 -48 1 -92 15 -45
64 -98 91 -98 6 0 14 -7 17 -16 9 -24 7 -704 -2 -704 -10 0 -22 13 -212 230
-80 91 -161 183 -181 205 -20 22 -76 85 -124 140 -48 55 -103 117 -122 137
l-34 37 17 50 c16 42 16 54 5 92 -44 147 -232 157 -286 15 -31 -81 3 -163 83
-198 41 -18 52 -20 91 -9 36 9 47 9 56 -1 13 -14 64 -72 175 -198 36 -41 101
-115 145 -165 44 -49 130 -146 190 -215 60 -69 112 -127 115 -130 3 -3 24 -26
48 -52 l42 -48 0 -235 0 -235 -556 0 -557 0 -98 97 -99 97 0 391 0 392 37 24
c102 67 93 223 -15 275 -106 50 -221 -37 -210 -158 6 -60 30 -95 87 -127 l42
-23 -3 -338 c-2 -186 -6 -342 -11 -346 -4 -4 -107 93 -229 217 -121 123 -286
289 -365 369 l-144 146 17 39 c33 79 0 166 -76 205 -47 24 -66 25 -113 5 -124
-51 -130 -234 -9 -291 25 -12 48 -14 86 -10 l51 7 357 -358 c197 -197 358
-364 358 -371 0 -9 -75 -12 -320 -12 l-320 0 -9 23 c-15 39 -69 86 -107 93
-110 20 -194 -60 -181 -173 6 -59 32 -93 91 -121 46 -22 49 -23 97 -7 47 16
72 39 105 100 11 19 23 20 365 23 l354 2 128 -123 127 -122 0 -571 0 -571 -77
-7 c-42 -3 -147 -6 -233 -6 -156 0 -157 0 -192 28 -19 15 -41 34 -50 42 -23
23 -206 191 -231 212 -11 11 -51 47 -87 81 -36 34 -115 107 -175 162 -60 55
-136 125 -168 155 l-58 55 17 33 c22 44 13 114 -20 157 -14 18 -45 39 -71 50
-42 15 -52 16 -88 4 -82 -27 -131 -112 -109 -188 26 -86 89 -127 180 -117 l57
6 55 -51 c30 -28 78 -72 105 -96 28 -25 99 -91 159 -147 60 -55 118 -109 129
-118 11 -10 62 -57 115 -105 52 -49 108 -100 124 -115 17 -15 27 -31 23 -37
-4 -8 -110 -11 -328 -11 l-322 1 -27 38 c-37 54 -103 79 -159 61 -53 -18 -84
-46 -104 -97 -16 -39 -16 -44 3 -86 28 -63 73 -92 142 -92 61 1 96 20 123 67
l16 28 331 0 c181 0 330 -4 330 -9 0 -4 -21 -28 -48 -52 -26 -24 -97 -89 -157
-145 -61 -55 -201 -185 -313 -288 l-203 -188 -44 12 c-111 31 -219 -81 -185
-192 14 -50 67 -104 110 -113 41 -9 100 2 127 24 41 34 66 97 59 148 -3 25
-11 52 -18 60 -9 11 -7 18 8 32 17 16 319 294 656 604 l117 107 241 0 240 0 0
-577 0 -577 -123 -117 -122 -118 -362 -1 -361 0 -21 43 c-30 60 -64 82 -131
82 -34 0 -64 -6 -77 -16 -84 -58 -97 -177 -28 -251 29 -31 92 -53 127 -45 37
10 88 49 107 82 9 17 21 33 26 37 6 4 151 8 323 8 261 0 313 -2 310 -14 -2 -7
-164 -177 -360 -376 l-358 -363 -39 13 c-36 12 -44 11 -87 -11 -59 -30 -85
-64 -91 -122 -12 -102 47 -172 146 -172 60 0 89 15 127 64 23 31 27 138 6 164
-10 11 -10 21 -3 34 5 10 171 179 369 377 318 317 360 355 365 335 3 -13 5
-169 4 -348 l-2 -324 -37 -21 c-62 -35 -83 -71 -83 -142 0 -73 19 -106 81
-141 48 -28 74 -29 123 -3 101 51 122 175 44 254 -20 20 -42 36 -50 36 -11 0
-13 72 -13 393 l0 393 100 102 99 102 556 0 555 0 0 -237 0 -238 -28 -30 c-15
-16 -79 -88 -142 -160 -63 -71 -117 -132 -120 -135 -3 -3 -68 -77 -145 -165
-77 -88 -156 -178 -176 -200 -20 -22 -52 -58 -72 -80 l-35 -40 -77 0 -77 0
-39 -43 c-83 -94 -48 -223 71 -262 94 -31 205 74 185 177 -3 19 -11 44 -18 54
-11 18 14 53 139 189 23 25 79 88 125 141 46 53 145 165 220 250 74 85 144
164 154 176 11 13 23 23 27 23 5 0 7 -161 6 -357 l-3 -358 -30 -14 c-39 -19
-61 -47 -80 -101 -14 -42 -14 -50 1 -93 22 -64 68 -99 139 -105 77 -6 134 23
164 84 40 79 16 162 -59 209 l-37 23 -6 123 c-10 180 -8 577 2 583 5 3 55 -47
112 -112 57 -64 120 -135 140 -157 20 -22 76 -85 124 -140 114 -131 126 -144
219 -248 66 -75 77 -92 71 -114 -22 -91 -17 -137 21 -182 13 -16 45 -37 69
-47 43 -16 48 -16 90 1 27 10 56 31 73 53 23 30 27 45 27 96 -1 107 -67 164
-174 152 -50 -6 -58 -4 -75 16 -23 27 -233 266 -280 318 -17 19 -64 73 -105
120 -41 47 -77 87 -80 90 -4 3 -33 37 -66 75 -33 39 -63 72 -66 75 -3 3 -29
32 -58 64 l-51 59 0 234 0 233 556 0 555 0 105 -102 104 -101 0 -381 c0 -210
-4 -386 -8 -391 -4 -6 -23 -22 -44 -37 -95 -72 -82 -220 25 -268 54 -25 78
-25 127 0 58 30 85 73 85 141 0 66 -31 115 -89 143 l-36 17 0 344 c0 189 4
346 8 349 5 3 170 -159 368 -360 262 -267 359 -372 358 -387 -1 -12 -7 -36
-15 -54 -25 -62 27 -160 97 -183 44 -15 111 -5 141 19 27 23 63 89 63 117 0
74 -38 130 -109 160 -29 13 -43 13 -75 4 l-40 -12 -363 364 c-199 199 -363
369 -363 376 0 9 68 12 309 12 170 0 317 -3 326 -6 8 -4 22 -22 30 -40 15 -37
63 -71 113 -80 44 -9 106 20 140 64 38 50 38 134 0 184 -73 96 -204 85 -258
-23 l-20 -39 -358 0 -357 0 -128 123 -127 123 2 570 3 569 240 2 240 3 40 -36
c22 -20 89 -82 149 -138 60 -55 118 -109 130 -119 11 -10 43 -39 71 -65 28
-26 100 -92 160 -147 59 -55 137 -127 173 -161 l65 -60 -13 -38 c-38 -116 45
-228 157 -212 84 11 128 64 128 152 0 76 -31 123 -100 150 -40 15 -51 15 -86
4 -44 -15 -29 -24 -159 96 -30 29 -68 64 -85 79 -16 15 -71 65 -121 111 -50
47 -100 92 -111 102 -11 9 -69 62 -129 118 -60 56 -121 112 -136 126 -16 14
-28 28 -28 32 0 3 150 6 333 6 l332 0 23 -34 c38 -56 113 -80 174 -57 13 5 38
23 55 41 77 79 37 197 -78 232 -33 9 -45 8 -80 -7 -23 -11 -55 -36 -72 -57
l-30 -38 -323 0 c-178 0 -325 4 -328 9 -3 5 126 129 286 277 161 148 322 297
358 332 l65 62 60 -6 c71 -7 99 3 142 46 35 36 50 95 38 149 -10 45 -63 97
-114 112 -40 12 -47 11 -89 -12 -68 -36 -87 -68 -85 -142 1 -34 3 -72 5 -83 3
-21 -117 -136 -670 -641 l-113 -103 -163 0 c-90 0 -197 3 -239 6 l-77 7 0 570
0 570 128 123 127 123 357 1 358 0 19 -37 c52 -103 158 -128 236 -55 55 51 68
119 35 186 -26 53 -59 76 -118 82 -61 7 -107 -17 -145 -73 l-28 -43 -320 0
c-179 0 -319 4 -317 9 2 5 163 171 359 370 l356 362 50 -7 c62 -8 112 13 151
64 22 28 27 46 27 91 0 68 -27 111 -85 141 -47 24 -69 25 -117 5 -47 -20 -75
-51 -93 -104 -12 -38 -12 -48 5 -97 l19 -55 -365 -365 c-200 -200 -367 -364
-371 -364 -5 0 -8 157 -8 349 l0 349 28 10 c55 20 102 88 102 148 0 37 -36
105 -68 129 -20 15 -43 20 -89 20 -52 0 -66 -4 -89 -25 -31 -29 -63 -94 -64
-128 0 -47 63 -141 96 -142 7 0 15 -7 18 -16 3 -9 6 -186 6 -393 l0 -378 -99
-101 -100 -102 -560 0 -561 0 0 230 0 229 73 84 c70 82 334 382 388 442 15 17
81 91 146 165 84 95 125 134 139 133 10 -2 35 -5 54 -8 41 -7 101 24 134 68
29 39 29 140 1 178 -36 48 -66 64 -125 64 -59 0 -85 -13 -122 -60 -23 -30 -30
-108 -15 -170 7 -28 0 -38 -90 -141 -54 -61 -163 -184 -243 -275 -79 -90 -158
-180 -176 -199 -17 -19 -55 -62 -84 -95 -30 -33 -60 -61 -67 -63 -10 -3 -13
42 -13 225 0 125 3 286 7 356 6 118 8 129 27 137 12 4 33 20 48 35 79 79 53
212 -49 256 -55 24 -87 24 -138 0z m260 -2172 c159 -48 299 -152 391 -290 144
-217 151 -518 17 -749 -48 -82 -171 -207 -246 -248 -122 -68 -181 -84 -322
-90 -155 -5 -217 7 -343 69 -104 52 -214 152 -278 255 -126 203 -139 474 -31
694 33 69 58 102 132 175 116 116 230 178 383 205 73 14 219 3 297 -21z"/>
<path d="M2877 3605 c-247 -49 -433 -260 -469 -531 -10 -69 -9 -96 6 -169 31
-159 83 -254 198 -361 107 -98 289 -164 419 -149 143 15 255 66 358 161 200
186 252 484 127 732 -85 169 -233 283 -414 318 -88 17 -135 17 -225 -1z"/>
</g>
</svg>
