<?xml version="1.0" standalone="no"?>
<!DOCTYPE svg PUBLIC "-//W3C//DTD SVG 20010904//EN"
 "http://www.w3.org/TR/2001/REC-SVG-20010904/DTD/svg10.dtd">
<svg version="1.0" xmlns="http://www.w3.org/2000/svg"
 width="4000.000000pt" height="4000.000000pt" viewBox="0 0 4000.000000 4000.000000"
 preserveAspectRatio="xMidYMid meet">
<metadata>
Created by potrace 1.16, written by Peter Selinger 2001-2019
</metadata>
<g transform="translate(0.000000,4000.000000) scale(0.100000,-0.100000)"
fill="#000000" stroke="none">
<path d="M19420 33484 c-1008 -70 -1883 -305 -2752 -740 -690 -345 -1266 -762
-1828 -1324 -935 -933 -1557 -2037 -1880 -3335 l-10 -41 -85 -12 c-167 -24
-373 -97 -537 -188 -399 -224 -693 -606 -802 -1043 -72 -286 -70 -374 33
-1306 44 -407 88 -774 97 -815 140 -665 681 -1186 1351 -1300 82 -14 162 -20
281 -20 l167 0 77 -153 c253 -497 555 -949 932 -1392 65 -77 242 -263 393
-414 151 -150 272 -275 270 -277 -2 -2 -42 -28 -89 -58 -105 -66 -209 -143
-317 -236 l-82 -71 -167 -35 c-291 -62 -474 -85 -712 -91 -237 -6 -355 6 -536
53 -255 66 -556 222 -789 409 -91 73 -262 231 -281 260 -9 13 -23 87 -34 172
-66 515 -187 922 -345 1158 -125 188 -286 287 -490 302 -281 20 -502 -184
-620 -572 -19 -64 -38 -134 -41 -155 -4 -22 -8 -40 -11 -40 -2 0 -45 29 -95
65 -184 132 -411 262 -608 348 -471 205 -876 240 -1242 107 -230 -84 -379
-253 -439 -500 l-21 -85 -59 -33 c-239 -132 -432 -361 -554 -655 -265 -642
-106 -1106 854 -2492 362 -522 610 -829 966 -1193 795 -816 1688 -1365 2685
-1653 l165 -47 211 -1429 c117 -785 239 -1612 273 -1838 69 -466 70 -476 55
-482 -7 -2 -31 31 -54 73 -104 190 -249 383 -420 558 -197 203 -363 327 -582
437 -233 117 -458 176 -704 186 -304 12 -571 -51 -829 -195 -237 -132 -401
-301 -471 -484 -15 -40 -44 -107 -64 -148 -48 -95 -103 -243 -146 -388 -293
-992 -93 -2417 572 -4065 205 -508 271 -633 413 -777 169 -170 383 -282 611
-320 41 -7 80 -16 85 -20 18 -14 148 -49 240 -64 339 -57 937 -45 1535 31
l124 15 30 -38 c49 -65 168 -177 231 -219 67 -44 179 -95 270 -122 57 -17 329
-18 6295 -21 5684 -2 6242 -1 6315 14 209 41 410 167 542 338 l30 40 154 -17
c310 -34 510 -48 789 -54 410 -8 663 15 855 78 50 17 126 37 169 45 214 41
414 150 576 313 141 142 207 265 405 751 588 1445 822 2755 665 3715 -62 378
-152 640 -328 955 -76 135 -99 167 -177 246 -327 330 -879 469 -1390 352 -140
-32 -278 -84 -422 -158 -73 -37 -133 -67 -133 -66 0 0 9 48 20 106 95 495 102
1026 20 1425 -32 158 -116 460 -159 575 -44 119 -150 368 -187 442 l-25 50 17
110 c23 149 16 279 -20 373 -65 171 -198 303 -364 361 -35 12 -68 26 -72 31
-4 4 -45 76 -90 158 -263 477 -592 1031 -900 1516 l-157 246 -6 214 c-3 118
-13 261 -22 319 -122 812 -595 1494 -1313 1895 l-103 58 233 236 c245 247 347
362 532 595 598 755 1037 1629 1285 2560 28 104 52 190 53 191 2 2 54 13 117
25 262 49 522 167 726 329 135 108 306 304 399 458 167 279 252 641 226 963
-25 303 -162 1517 -180 1604 -30 137 -63 232 -126 366 -229 479 -666 817
-1195 921 -92 19 -149 23 -296 23 l-183 1 -16 40 c-24 60 -186 362 -277 515
-684 1154 -1712 2112 -2909 2711 -801 401 -1596 630 -2518 725 -147 15 -931
28 -1080 18z m725 -384 c1358 -67 2623 -522 3705 -1333 341 -256 710 -595 976
-897 29 -33 33 -41 14 -29 -14 9 -79 50 -145 91 -1409 878 -3340 1277 -5435
1123 -1900 -140 -3552 -722 -4737 -1668 -73 -58 -133 -103 -133 -100 0 12 201
274 311 405 903 1084 2122 1857 3469 2202 663 170 1321 238 1975 206z m385
-1390 c1347 -51 2512 -327 3504 -830 547 -277 1000 -603 1406 -1010 275 -274
313 -323 414 -530 48 -96 86 -178 86 -184 0 -5 -18 14 -40 44 -191 255 -531
592 -828 818 -903 688 -2170 1123 -3657 1257 -358 32 -464 37 -946 42 -503 6
-787 -2 -1194 -33 -2032 -153 -3662 -714 -4780 -1645 -128 -107 -393 -366
-500 -489 -183 -211 -328 -409 -455 -621 -44 -74 -84 -141 -89 -149 -13 -21
37 139 93 295 40 115 58 148 151 285 300 445 723 884 1190 1235 988 743 2308
1239 3805 1429 610 78 1257 108 1840 86z m-866 -1521 c22 -8 41 -18 43 -24 2
-5 -52 -29 -120 -52 -372 -126 -815 -325 -1223 -549 -632 -346 -1225 -788
-1660 -1235 -467 -480 -796 -965 -1042 -1534 -432 -1003 -789 -2083 -946
-2861 -18 -92 -35 -163 -38 -158 -21 36 -133 413 -187 629 -273 1087 -316
2081 -126 2861 154 627 449 1105 910 1475 698 559 1620 995 2655 1254 432 108
742 161 1235 209 99 9 461 -1 499 -15z m6912 -1110 c465 -64 878 -410 1028
-861 47 -140 50 -165 187 -1463 36 -337 27 -503 -38 -700 -105 -321 -330 -588
-623 -739 -75 -39 -279 -116 -307 -116 -5 0 1 64 13 143 27 171 51 385 64 567
13 177 13 777 0 972 -49 710 -194 1385 -441 2039 -32 86 -59 160 -59 163 0 9
91 7 176 -5z m-1912 -1024 c337 -71 602 -421 664 -875 9 -64 0 -152 -42 -411
-22 -134 -95 -486 -111 -532 -49 -141 -278 -402 -428 -486 -119 -67 -203 -92
-329 -98 -205 -10 -369 56 -524 211 -148 150 -254 366 -301 618 -24 129 -23
427 1 558 99 539 421 942 817 1019 69 14 178 12 253 -4z m-11798 -441 c-12
-48 -55 -365 -73 -544 -26 -252 -26 -1035 0 -1295 71 -720 234 -1397 482
-2007 6 -16 0 -18 -58 -18 -146 0 -342 52 -504 134 -329 166 -571 466 -662
821 -24 94 -39 214 -126 1020 -36 330 -65 634 -65 675 0 310 131 632 352 865
162 172 340 282 568 351 95 29 93 29 86 -2z m10758 -2679 c98 -16 213 -96 274
-192 103 -161 111 -404 21 -589 -160 -326 -542 -413 -762 -174 -150 163 -181
418 -79 642 26 57 103 164 141 196 37 30 119 80 161 96 79 32 142 37 244 21z
m-12279 -2334 c157 -71 303 -434 389 -971 14 -85 30 -204 36 -265 8 -71 19
-126 33 -154 26 -56 255 -287 393 -397 332 -265 735 -458 1076 -515 l76 -13 8
-95 c8 -109 -2 -647 -17 -911 -57 -1025 -227 -1827 -496 -2340 -74 -141 -75
-142 -135 -157 -97 -24 -197 -82 -273 -158 -39 -38 -81 -91 -95 -117 -14 -28
-32 -48 -42 -48 -26 0 -302 85 -435 134 -938 344 -1786 955 -2519 1811 -249
292 -452 569 -809 1105 -268 402 -398 618 -510 845 -209 425 -229 644 -89 975
108 258 281 439 489 515 37 13 77 32 88 42 33 29 57 93 57 153 0 113 53 246
119 300 79 66 256 110 436 110 265 0 544 -87 878 -274 170 -95 331 -206 553
-382 12 -9 1 -36 -59 -156 -113 -225 -155 -371 -164 -579 -9 -201 23 -368 108
-555 21 -48 33 -64 49 -64 19 0 20 6 20 133 1 334 56 522 262 884 42 73 86
161 98 195 12 35 33 88 46 119 14 32 24 76 24 102 0 71 28 257 54 361 46 180
116 317 185 363 42 28 109 30 166 4z m12980 -1143 c-466 -428 -1056 -821
-1655 -1101 -1412 -662 -3053 -805 -4572 -397 -652 174 -1281 452 -1852 818
-148 95 -393 267 -451 317 -28 24 -25 23 40 -8 254 -124 683 -296 1015 -407
721 -241 1408 -383 2180 -452 233 -21 1055 -18 1300 5 1075 100 2039 341 2994
749 336 143 729 339 980 489 44 27 83 48 85 49 2 0 -27 -28 -64 -62z m240
-624 c468 -263 827 -677 1008 -1165 41 -108 97 -302 97 -333 0 -23 16 -43
-195 254 -311 438 -638 857 -928 1188 -54 61 -95 112 -90 112 4 0 53 -25 108
-56z m-250 -351 c664 -754 1544 -2040 2298 -3359 92 -160 169 -298 173 -308 6
-15 -61 -16 -890 -16 l-895 0 -11 43 c-49 185 -194 656 -283 922 -113 334
-210 529 -354 708 -59 73 -87 84 -103 41 -15 -39 -12 -320 5 -443 21 -145 113
-519 261 -1050 30 -107 54 -201 54 -208 0 -11 -829 -13 -4740 -13 -2607 0
-4740 2 -4740 5 0 3 31 120 70 260 127 465 241 1059 272 1416 12 144 9 169
-20 169 -31 0 -172 -263 -317 -589 -169 -382 -296 -774 -400 -1238 l-5 -23
-814 0 -815 0 53 113 c204 433 357 1063 431 1782 41 405 71 1045 63 1383 l-4
182 92 0 c444 0 1101 135 1866 382 l127 41 53 -38 c113 -80 351 -234 508 -328
200 -119 646 -342 865 -433 1144 -471 2323 -635 3560 -493 587 67 1219 225
1770 444 535 212 1165 560 1565 864 l65 50 49 -52 c26 -29 113 -125 191 -214z
m2886 -4081 c61 -32 107 -94 119 -164 7 -38 -2 -120 -26 -237 -6 -26 -14 -26
-124 6 l-65 18 -1 45 -1 45 -659 0 -659 0 3 -36 3 -35 -63 -16 c-35 -9 -93
-28 -130 -42 -38 -14 -68 -22 -68 -18 0 4 -4 1 -9 -6 -5 -8 -20 -15 -34 -15
-14 -1 -23 -6 -19 -11 3 -5 -2 -6 -12 -3 -9 4 -15 3 -12 -2 6 -9 -52 -38 -66
-33 -5 1 -8 -2 -8 -7 0 -4 -24 -24 -52 -43 -29 -19 -88 -67 -130 -107 -42 -40
-81 -73 -85 -74 -4 -1 -7 -7 -5 -14 1 -6 -5 -17 -15 -25 -20 -15 -60 -66 -117
-150 -21 -32 -42 -55 -47 -53 -4 3 -11 0 -15 -6 -4 -8 -3 -9 4 -5 18 11 15 -1
-14 -50 -23 -39 -28 -43 -43 -32 -14 11 -14 11 -3 -4 11 -14 8 -25 -21 -77
-18 -34 -37 -58 -42 -53 -4 4 -5 2 -2 -5 9 -14 -37 -115 -48 -105 -5 4 -5 2
-1 -5 4 -7 -2 -29 -13 -50 -10 -21 -33 -76 -51 -123 -18 -47 -39 -92 -46 -101
-8 -9 -12 -18 -9 -21 3 -3 0 -18 -6 -34 -7 -16 -13 -33 -14 -39 -9 -37 -28
-102 -37 -124 -6 -14 -12 -31 -14 -38 -14 -67 -40 -153 -47 -153 -4 0 -6 -4
-3 -9 4 -5 -5 -56 -19 -113 -14 -56 -28 -117 -30 -135 -3 -18 -14 -85 -25
-150 -41 -243 -53 -436 -46 -753 7 -320 10 -367 20 -377 3 -3 6 -18 6 -32 0
-14 11 -79 25 -145 13 -65 22 -123 18 -129 -3 -6 -1 -7 5 -3 8 5 12 0 12 -13
0 -33 67 -225 112 -319 22 -48 41 -98 42 -112 1 -14 7 -24 13 -23 6 1 24 -19
39 -45 15 -26 35 -58 45 -71 11 -13 16 -27 13 -32 -3 -5 -1 -8 4 -7 9 3 72
-67 72 -79 0 -16 -63 -92 -72 -87 -7 4 -8 2 -4 -4 6 -11 -104 -171 -147 -214
-9 -9 -17 -21 -17 -26 0 -6 -3 -12 -7 -14 -5 -2 -32 -32 -62 -68 -170 -206
-419 -457 -630 -636 -130 -109 -389 -304 -406 -304 -3 0 -16 -9 -28 -21 -18
-16 -136 -95 -227 -150 -95 -57 -252 -149 -255 -149 -2 0 -45 -24 -97 -54
-215 -124 -843 -416 -1053 -490 -27 -10 -59 -22 -70 -27 -36 -16 -253 -97
-287 -108 -18 -5 -78 -26 -133 -46 -55 -20 -134 -47 -175 -60 -41 -13 -140
-44 -220 -70 -167 -54 -551 -163 -665 -190 -11 -2 -81 -20 -155 -39 -74 -19
-146 -37 -160 -40 -14 -3 -72 -17 -130 -31 -58 -15 -136 -33 -175 -40 -38 -8
-144 -30 -235 -50 -235 -50 -440 -89 -800 -150 -397 -68 -880 -138 -1175 -170
-71 -8 -209 -23 -305 -34 -244 -28 -437 -46 -785 -76 -731 -61 -1171 -83
-2280 -118 l-70 -2 3 -62 3 -63 -91 0 c-49 0 -90 2 -90 4 0 2 -7 43 -16 92 -8
49 -75 496 -149 994 -121 815 -859 5797 -971 6550 -39 263 -44 311 -34 350 16
64 56 117 115 151 l50 29 7176 0 7177 0 53 -28z m-488 -677 c208 -32 451 -96
571 -149 50 -22 61 -33 117 -118 200 -304 301 -669 316 -1138 17 -555 -101
-1156 -341 -1733 -149 -359 -368 -688 -514 -770 -41 -23 -45 -24 -100 -11 -99
24 -271 17 -495 -18 -170 -27 -229 -32 -372 -31 -151 0 -181 3 -268 26 -118
31 -279 106 -382 178 -254 175 -424 515 -484 964 -79 598 38 1361 299 1951
115 259 223 427 370 575 80 81 109 103 180 137 146 69 360 128 550 152 104 12
435 4 553 -15z m-15493 -2525 c447 -91 852 -405 1166 -903 36 -56 104 -181
151 -277 47 -96 92 -182 100 -191 8 -9 34 -97 58 -195 24 -99 73 -282 109
-409 76 -269 142 -521 181 -690 16 -66 32 -125 37 -132 20 -25 36 0 48 75 7
42 14 73 16 67 2 -5 35 -228 74 -495 39 -267 114 -773 166 -1125 51 -353 94
-650 94 -661 0 -16 -12 -24 -55 -38 -30 -9 -88 -39 -129 -67 -181 -120 -274
-315 -264 -549 l3 -85 -100 -12 c-252 -29 -755 -62 -755 -50 0 3 20 34 44 69
376 541 359 1739 -49 3370 -180 718 -436 1456 -628 1808 -101 187 -254 377
-382 478 l-40 31 28 1 c16 0 73 -9 127 -20z m17569 -11 c-137 -98 -302 -314
-417 -544 -312 -626 -668 -1847 -816 -2805 -74 -478 -97 -734 -97 -1105 0
-477 58 -801 191 -1070 27 -55 68 -124 90 -152 l40 -53 -58 0 c-113 0 -655 42
-723 56 l-26 5 1 122 c1 100 -3 135 -21 192 -57 181 -196 328 -368 391 -56 20
-60 24 -57 50 2 16 42 286 88 599 47 314 89 606 95 650 6 44 37 259 70 477 32
219 59 401 59 404 0 4 6 2 13 -4 7 -6 18 -8 24 -4 6 4 28 78 48 165 33 145 80
320 230 861 53 191 57 201 99 246 163 174 361 517 490 850 31 80 64 159 72
176 19 37 170 174 282 254 199 142 517 264 701 269 l34 1 -44 -31z m-18047
-150 c131 -38 283 -165 393 -330 77 -114 229 -421 214 -432 -6 -5 -1583 -267
-1586 -264 -7 8 54 251 91 362 75 224 186 446 251 503 52 46 168 111 256 143
140 51 250 56 381 18z m18712 5 c88 -21 185 -65 274 -124 77 -51 83 -57 140
-159 72 -126 139 -282 181 -418 32 -103 84 -323 79 -329 -4 -3 -1580 257
-1587 262 -7 6 92 226 142 312 133 234 270 374 427 438 110 44 214 50 344 18z
m-17964 -1121 c64 -168 236 -720 228 -729 -4 -3 -1016 -141 -1735 -236 -133
-18 -246 -28 -250 -24 -4 4 -11 47 -15 94 -9 116 -9 577 0 627 l7 39 845 142
c465 78 857 142 872 143 23 1 29 -6 48 -56z m17824 -86 l850 -143 9 -34 c10
-38 3 -682 -8 -716 -6 -20 -8 -20 -103 -7 -53 7 -500 68 -992 134 -492 66
-896 122 -898 124 -8 8 198 659 243 768 4 9 17 17 29 16 11 0 403 -64 870
-142z m-2697 -409 c-3 -13 -11 -69 -18 -125 -7 -57 -16 -103 -19 -103 -3 0 -6
-20 -7 -44 -2 -53 -112 -795 -120 -816 -3 -8 -5 -19 -4 -23 3 -14 -33 -252
-39 -257 -3 -3 -6 -27 -7 -55 -2 -27 -7 -77 -13 -110 -5 -33 -35 -231 -65
-440 -30 -209 -59 -407 -65 -440 -13 -85 -45 -301 -75 -510 -14 -99 -29 -193
-33 -210 l-8 -30 -97 -3 -97 -3 0 27 c0 15 9 81 19 148 11 66 32 202 46 301
62 423 123 837 175 1185 11 74 36 243 55 375 20 132 42 283 50 335 18 111 66
439 97 657 l22 152 36 4 c19 2 66 4 104 5 66 2 68 1 63 -20z m-14759 -755 c55
-229 123 -546 118 -550 -2 -2 -297 -39 -657 -83 -360 -44 -818 -100 -1019
-125 -201 -25 -370 -45 -377 -45 -18 0 -104 388 -147 662 l-13 87 36 5 c20 3
374 51 786 106 413 56 842 114 955 129 113 16 219 29 236 30 l30 1 52 -217z
m16858 137 c330 -45 781 -105 1003 -135 222 -30 405 -56 407 -57 11 -12 -131
-727 -149 -745 -5 -4 -2057 243 -2063 249 -3 5 73 361 123 571 38 160 50 197
64 197 9 0 286 -36 615 -80z m-16681 -1012 c9 -44 54 -384 65 -498 11 -116 11
-237 0 -220 -8 14 -51 -109 -43 -124 3 -6 2 -8 -2 -3 -11 10 -37 -51 -28 -67
3 -6 3 -8 -2 -4 -4 4 -13 3 -20 -2 -10 -8 -1622 -160 -1702 -160 -29 0 -33 4
-53 58 -33 87 -215 637 -238 718 l-20 72 37 5 c20 3 189 24 376 47 187 23 624
76 970 119 347 43 636 79 642 80 7 0 15 -9 18 -21z m16585 -73 c1062 -129
1274 -155 1277 -159 8 -8 -173 -567 -253 -778 -24 -63 -28 -68 -56 -68 -27 0
-1285 112 -1590 141 -90 9 -118 15 -118 26 0 8 -4 11 -10 8 -5 -3 -8 0 -5 7 3
7 0 20 -5 28 -9 13 -11 13 -20 0 -5 -8 -10 -10 -10 -5 0 6 5 16 12 23 9 9 8
12 -6 12 -16 0 -18 -6 -12 -42 6 -41 6 -42 -9 -21 -16 23 -7 67 16 75 9 3 8
11 -3 33 -9 17 -19 45 -23 63 -3 18 -10 30 -14 27 -21 -13 1 272 45 570 23
163 21 156 57 150 18 -3 345 -43 727 -90z m-16960 -1206 c0 -5 -4 -7 -10 -4
-5 3 -10 -1 -10 -9 0 -8 -5 -18 -12 -22 -8 -5 -9 -2 -5 9 3 10 2 17 -3 17 -6
0 -10 -4 -10 -8 0 -4 -24 -14 -52 -20 -29 -7 -71 -17 -93 -22 -22 -5 -131 -9
-242 -10 -182 0 -203 -2 -212 -17 -10 -17 -10 -17 -11 0 0 11 -8 17 -25 18
-37 2 -43 3 -51 12 -4 4 8 7 27 8 19 0 167 13 329 28 341 33 380 35 380 20z
m16950 -20 c195 -17 359 -35 364 -40 5 -4 -1 -5 -13 -2 -11 3 -27 1 -34 -5 -7
-6 -35 -9 -62 -7 -28 2 -142 4 -255 6 -154 1 -210 5 -225 15 -30 21 -43 16
-15 -6 24 -19 25 -19 2 -13 -12 3 -28 13 -35 23 -7 9 -37 26 -67 38 -30 11
-46 21 -35 22 11 0 180 -14 375 -31z m-2147 -622 c71 -30 125 -97 142 -174 6
-32 -9 -62 -32 -63 -4 -1 -37 -23 -73 -50 -78 -60 -170 -105 -259 -128 -62
-16 -461 -17 -6266 -17 -5136 0 -6209 2 -6250 13 -88 24 -178 64 -252 114 -40
27 -73 53 -73 58 0 5 -10 10 -21 12 -81 12 -11 181 95 229 40 18 247 19 6499
19 5395 0 6463 -2 6490 -13z"/>
<path d="M20670 13848 c-141 -6 -225 -17 -348 -43 -41 -8 -77 -13 -82 -10 -5
3 -10 2 -12 -2 -1 -5 -43 -21 -91 -36 -75 -24 -91 -27 -105 -15 -15 12 -16 11
-4 -4 11 -14 8 -18 -25 -29 -61 -19 -239 -109 -275 -137 -9 -8 -22 -11 -29 -6
-7 4 -10 3 -6 -3 4 -6 -16 -26 -44 -44 -29 -18 -70 -48 -92 -66 -22 -19 -46
-32 -53 -29 -8 3 -11 0 -8 -9 7 -16 -73 -78 -89 -68 -5 3 -7 1 -3 -5 8 -14
-43 -74 -56 -65 -6 3 -8 2 -5 -4 6 -10 -50 -67 -115 -117 l-37 -28 -67 27
c-80 32 -82 32 -214 47 -127 13 -278 -1 -409 -39 -47 -14 -90 -26 -96 -27 -5
-1 -25 -10 -42 -19 -18 -10 -33 -14 -33 -10 0 5 -4 3 -8 -3 -4 -6 -27 -21 -52
-32 -52 -25 -115 -60 -149 -84 -13 -9 -29 -14 -34 -11 -6 3 -7 1 -3 -5 4 -7 1
-12 -8 -12 -9 0 -16 -4 -16 -8 0 -4 -14 -16 -31 -26 -17 -10 -46 -32 -65 -48
-31 -27 -63 -31 -48 -6 4 7 2 8 -5 4 -8 -6 -9 -12 -2 -20 8 -9 3 -20 -18 -40
-15 -15 -32 -26 -37 -24 -5 2 -10 -1 -12 -7 -5 -19 -65 -74 -74 -69 -5 3 -8 2
-7 -3 4 -20 -2 -24 -18 -12 -15 11 -16 11 -6 -1 10 -11 9 -17 -4 -32 -13 -15
-19 -16 -32 -5 -14 10 -14 10 -4 -3 9 -12 5 -22 -24 -54 -24 -26 -38 -35 -43
-26 -5 8 -9 7 -13 -5 -4 -9 -3 -13 3 -10 24 15 5 -12 -60 -86 -81 -91 -90
-110 -90 -181 0 -45 4 -54 35 -83 22 -22 59 -41 109 -56 41 -13 73 -26 71 -29
-2 -3 7 -5 18 -6 40 -2 326 -98 320 -108 -3 -5 -1 -6 6 -2 15 10 142 -33 159
-53 8 -10 11 -11 6 -2 -6 11 -3 13 12 7 10 -4 30 -10 43 -12 31 -6 61 -22 61
-33 0 -5 -6 -14 -14 -20 -26 -21 -40 -98 -27 -142 7 -22 9 -45 5 -51 -4 -7 -3
-8 4 -4 7 4 12 2 12 -3 0 -6 10 -21 23 -33 39 -40 96 -121 91 -130 -3 -5 -1
-7 4 -6 5 2 21 -12 37 -30 l28 -34 -29 -24 c-16 -13 -34 -21 -41 -19 -7 2 -15
-1 -19 -7 -5 -7 -2 -8 6 -3 9 6 11 4 6 -4 -5 -7 -15 -10 -23 -7 -8 3 -12 2 -9
-3 8 -12 -19 -33 -28 -23 -4 4 -6 0 -4 -8 2 -9 -4 -14 -14 -14 -10 1 -16 -2
-13 -6 2 -4 -3 -16 -11 -26 -9 -10 -12 -13 -8 -5 5 10 3 12 -5 7 -7 -5 -10
-10 -8 -13 3 -2 -1 -20 -9 -38 -19 -47 -18 -84 6 -122 27 -45 65 -67 121 -69
45 -1 54 3 146 72 95 72 129 86 127 51 -1 -9 2 -15 6 -12 4 2 20 -14 36 -36
16 -23 53 -70 82 -105 47 -57 52 -67 40 -82 -12 -15 -11 -16 4 -4 14 12 21 11
40 -2 26 -18 105 -21 157 -6 19 5 36 8 37 7 6 -5 35 -662 31 -684 -2 -13 0
-26 4 -29 5 -3 9 -32 9 -65 0 -34 7 -73 15 -90 9 -16 13 -35 9 -42 -4 -7 -4
-9 1 -5 4 4 13 4 19 -1 20 -17 95 -38 103 -30 5 5 25 10 45 11 20 2 34 7 30
12 -3 5 3 6 14 2 10 -4 15 -4 12 0 -10 9 62 45 75 37 6 -4 7 -1 2 7 -6 10 -4
12 11 6 10 -4 15 -4 11 0 -4 5 41 32 100 62 60 29 124 64 143 76 69 45 95 60
99 57 2 -1 7 2 10 7 9 14 100 82 109 82 5 0 19 11 32 25 12 13 27 22 32 19 5
-3 7 -2 6 3 -1 4 31 40 71 78 41 39 95 96 121 127 27 31 52 54 57 50 4 -4 5
-3 1 2 -10 13 11 48 24 40 7 -4 8 -3 4 4 -4 7 -2 12 3 12 6 0 10 3 9 8 -1 4
16 39 39 77 46 77 93 189 119 281 18 67 34 337 20 361 -12 22 8 60 43 78 17 8
34 15 37 14 4 0 10 4 13 9 9 15 144 102 158 102 6 0 13 4 15 8 5 12 131 95
145 95 7 0 11 3 10 6 -5 14 84 83 98 77 9 -3 13 -2 10 4 -8 13 55 81 68 73 6
-3 7 -1 4 4 -8 13 29 47 42 38 6 -3 8 0 5 8 -3 8 0 18 7 23 8 5 10 3 4 -6 -5
-9 -4 -11 4 -6 6 4 9 11 6 15 -2 5 10 26 28 47 18 21 55 71 82 109 53 76 64
87 79 78 5 -3 6 -1 2 6 -4 6 -11 9 -16 6 -4 -3 13 31 39 74 30 51 49 75 54 67
6 -7 7 -4 3 7 -3 9 3 34 13 55 38 74 65 139 101 244 21 59 41 104 45 100 5 -4
5 -2 1 5 -3 7 4 56 18 110 14 54 32 143 41 198 8 55 18 114 21 130 3 17 8 73
10 125 3 52 9 106 13 120 4 14 4 36 0 50 -4 14 -7 47 -8 74 -2 79 -26 108
-118 139 -88 30 -257 67 -303 67 -21 0 -29 4 -24 12 4 6 3 8 -3 5 -6 -4 -57
-3 -114 3 -148 14 -265 16 -419 8z m-76 -315 c14 -16 158 -201 320 -413 204
-266 295 -393 296 -410 0 -33 -93 -222 -161 -325 -186 -285 -419 -471 -882
-702 -197 -98 -412 -189 -657 -278 -240 -86 -500 -166 -516 -157 -7 4 -28 27
-46 52 -19 25 -46 61 -61 81 l-27 36 207 158 c637 486 670 513 687 555 42 105
-63 210 -165 167 -20 -8 -228 -162 -463 -342 -235 -180 -431 -323 -436 -319
-34 37 -120 159 -120 169 0 7 39 71 87 142 346 514 426 626 561 788 121 144
407 423 525 512 182 136 392 232 617 282 178 39 201 39 234 4z"/>
<path d="M20335 13246 c-132 -33 -242 -125 -302 -253 -33 -68 -38 -89 -41
-169 -6 -140 30 -242 120 -340 173 -188 481 -193 663 -10 100 100 149 250 127
388 -42 272 -304 449 -567 384z m189 -218 c86 -26 166 -136 166 -228 0 -85
-65 -185 -145 -221 -91 -42 -220 -11 -283 68 -41 53 -52 83 -52 149 0 169 151
280 314 232z"/>
<path d="M31741 30299 c-625 -40 -1215 -308 -1656 -753 -773 -781 -963 -1959
-474 -2945 77 -156 213 -365 323 -496 69 -81 75 -93 71 -125 -3 -19 -19 -254
-36 -522 l-31 -486 20 -45 c28 -63 86 -101 155 -101 54 -1 41 -6 622 269 66
31 187 88 268 126 l148 69 142 -34 c240 -59 342 -71 612 -70 256 1 355 11 569
59 1284 288 2146 1527 1970 2830 -94 693 -446 1297 -1000 1715 -328 248 -737
422 -1142 485 -93 14 -369 36 -417 33 -11 0 -76 -4 -144 -9z m359 -360 c734
-67 1383 -493 1742 -1144 40 -73 66 -127 55 -115 -3 3 -32 40 -66 83 -326 412
-774 704 -1276 832 -230 59 -322 70 -595 70 -267 0 -362 -11 -581 -65 -173
-44 -308 -93 -474 -175 -495 -243 -884 -643 -1116 -1147 -24 -53 -45 -95 -46
-94 -1 1 8 44 21 96 68 273 185 521 364 770 98 136 325 364 464 466 435 320
976 472 1508 423z m-425 -1419 c76 -29 158 -80 212 -132 l42 -41 61 55 c105
96 240 148 380 148 132 -1 232 -38 323 -120 177 -159 223 -428 109 -645 -18
-36 -136 -160 -407 -433 -209 -211 -392 -390 -407 -398 -42 -22 -89 -17 -139
15 -24 15 -204 190 -400 387 -336 340 -358 363 -396 441 -68 136 -78 268 -32
410 52 160 192 294 346 333 68 17 240 6 308 -20z"/>
</g>
</svg>
