<?xml version="1.0" standalone="no"?>
<!DOCTYPE svg PUBLIC "-//W3C//DTD SVG 20010904//EN"
 "http://www.w3.org/TR/2001/REC-SVG-20010904/DTD/svg10.dtd">
<svg version="1.0" xmlns="http://www.w3.org/2000/svg"
 width="8334.000000pt" height="8334.000000pt" viewBox="0 0 8334.000000 8334.000000"
 preserveAspectRatio="xMidYMid meet">
<metadata>
Created by potrace 1.16, written by Peter Selinger 2001-2019
</metadata>
<g transform="translate(0.000000,8334.000000) scale(0.100000,-0.100000)"
fill="#000000" stroke="none">
<path d="M37180 74233 c-1325 -24 -2729 -304 -4020 -803 -412 -159 -662 -271
-1380 -621 -793 -387 -1555 -899 -2255 -1517 -187 -166 -695 -678 -869 -877
-362 -414 -742 -925 -1096 -1475 -941 -1461 -1498 -3071 -1659 -4795 -39 -409
-45 -580 -45 -1100 2 -716 31 -1135 125 -1805 130 -920 373 -1813 703 -2577
343 -795 707 -1475 1150 -2148 84 -126 155 -235 159 -242 9 -15 -9 -10 -178
52 -856 311 -1813 779 -2785 1363 -686 413 -1782 1153 -2800 1891 -282 205
-400 293 -728 548 -215 168 -867 661 -1102 833 -63 46 -306 223 -540 394 -702
511 -1080 795 -1370 1030 -551 446 -920 800 -1328 1271 -71 83 -156 175 -188
206 -136 128 -306 215 -492 250 -91 17 -298 6 -392 -21 -355 -101 -666 -419
-824 -843 -202 -541 -170 -1172 94 -1832 121 -304 321 -603 749 -1124 67 -82
82 -106 71 -113 -695 -405 -1128 -714 -1484 -1058 -369 -358 -582 -705 -632
-1035 -20 -124 -14 -416 11 -550 114 -629 487 -1289 1013 -1792 l107 -102 1
-183 c1 -259 31 -392 130 -593 268 -542 949 -938 2104 -1225 326 -82 616 -141
1315 -270 596 -110 857 -176 960 -241 83 -52 195 -148 595 -509 446 -403 756
-672 1090 -946 2100 -1718 4366 -2818 6796 -3298 301 -60 665 -119 934 -153
118 -14 216 -27 217 -28 1 0 -29 -97 -68 -215 -39 -118 -106 -327 -149 -465
l-78 -250 -49 -18 c-217 -82 -445 -241 -600 -418 -346 -396 -466 -950 -313
-1442 12 -38 20 -70 18 -71 -2 -2 -48 -8 -103 -15 -304 -38 -727 -139 -1027
-246 -394 -140 -831 -358 -1168 -584 -976 -654 -1692 -1598 -2131 -2809 -279
-770 -379 -1534 -318 -2422 98 -1435 667 -3107 1602 -4705 38 -66 71 -123 73
-126 2 -4 -60 -28 -139 -53 -384 -125 -773 -309 -1071 -508 -554 -370 -921
-829 -1090 -1367 -63 -199 -95 -396 -103 -636 -18 -540 134 -1000 456 -1387
43 -51 97 -111 121 -131 23 -21 40 -40 38 -41 -1 -2 -50 -38 -108 -81 -286
-214 -715 -556 -1040 -831 -49 -42 -265 -229 -270 -234 -3 -3 -43 -39 -90 -80
-315 -277 -571 -520 -970 -919 -354 -354 -446 -449 -635 -655 -55 -60 -105
-114 -110 -120 -122 -131 -394 -443 -606 -696 -1953 -2328 -3431 -5068 -4308
-7990 -641 -2137 -956 -4331 -939 -6555 4 -492 4 -501 26 -557 71 -176 270
-260 437 -184 77 35 137 94 169 165 l25 57 5 750 c2 412 7 774 10 804 2 30 8
116 11 190 7 173 31 526 50 750 254 2961 1105 5818 2523 8460 57 107 115 213
127 235 13 22 71 126 130 230 757 1337 1731 2685 2771 3835 983 1088 2126
2124 3226 2926 l168 122 101 -40 c235 -91 485 -146 899 -198 1085 -136 2175
-132 3185 11 1361 193 2608 639 3360 1204 306 230 442 391 590 698 152 316
242 653 292 1090 13 118 17 240 18 545 0 340 2 393 15 396 28 8 325 65 520
100 2469 443 5001 455 7475 36 367 -62 1073 -201 1081 -213 0 -1 41 -78 89
-171 66 -127 83 -167 69 -162 -11 3 -89 21 -174 40 -1201 269 -2395 297 -3505
80 -1215 -237 -2271 -762 -3000 -1489 -347 -345 -611 -719 -806 -1138 -100
-216 -199 -503 -199 -580 0 -81 95 -127 154 -74 13 12 50 78 80 147 260 583
694 1117 1236 1521 765 570 1732 934 2865 1079 547 70 1165 78 1755 25 683
-63 1233 -173 1938 -388 42 -13 45 -17 78 -93 159 -362 328 -773 322 -780 -3
-2 -39 10 -80 26 -201 77 -659 210 -724 210 -57 0 -94 -37 -94 -94 0 -27 7
-52 18 -65 10 -12 80 -44 167 -76 227 -85 490 -199 689 -300 l180 -90 38 -105
c52 -145 189 -551 232 -688 56 -178 218 -493 383 -747 430 -660 1090 -1242
1850 -1633 65 -33 74 -41 80 -72 12 -60 8 -400 -6 -505 -128 -1003 -774 -1768
-1892 -2240 -1074 -453 -2498 -498 -3822 -119 -979 280 -1811 732 -2492 1353
-609 555 -1036 1247 -1184 1916 -45 204 -55 310 -55 565 -1 274 11 370 69 610
145 589 512 1125 1063 1553 63 48 110 93 119 112 33 68 -14 156 -91 170 -45 9
-86 -11 -248 -119 -483 -323 -844 -724 -1078 -1201 -279 -568 -362 -1156 -254
-1795 181 -1074 932 -2126 2064 -2892 943 -638 2045 -1026 3280 -1154 201 -21
804 -30 1012 -15 1159 84 2147 437 2877 1029 768 623 1200 1486 1201 2400 0
61 4 112 9 112 5 0 65 -20 132 -44 255 -89 598 -182 878 -237 l114 -22 -6
-186 c-8 -235 -45 -489 -103 -713 -17 -67 -13 -97 17 -140 43 -60 152 -55 195
9 26 39 112 295 153 458 26 99 59 283 88 484 l4 34 77 -7 c42 -3 124 -10 182
-15 204 -18 523 -23 728 -12 238 14 383 30 620 72 1162 201 1966 525 2491
1002 l75 67 35 -33 c20 -18 117 -107 216 -198 375 -342 942 -918 1340 -1359
1668 -1851 3016 -3988 3972 -6295 994 -2397 1555 -4965 1652 -7560 5 -121 9
-482 10 -803 2 -557 2 -585 22 -636 39 -105 139 -187 250 -203 153 -24 290 51
358 196 l26 56 0 665 c-1 778 -23 1284 -85 1965 -358 3895 -1707 7614 -3920
10806 -325 467 -859 1174 -1104 1460 -17 20 -60 71 -96 115 -97 117 -313 370
-375 438 -5 6 -44 49 -85 96 -41 47 -94 105 -117 130 -23 25 -50 55 -61 67
-38 44 -219 241 -316 343 -214 226 -833 835 -1046 1030 -123 113 -241 221
-262 240 l-37 35 34 98 c61 174 78 277 79 487 1 289 -49 509 -183 810 -228
510 -737 1101 -1411 1638 -80 64 -146 116 -147 117 -2 1 125 508 480 1915 124
492 469 1860 767 3040 297 1180 601 2384 675 2675 73 292 215 852 314 1245
1055 4183 1401 5552 1406 5559 3 5 76 57 163 114 269 179 560 402 821 631 165
143 586 565 736 736 536 612 1002 1318 1371 2075 58 117 129 255 160 307 74
125 211 405 272 558 212 529 336 1102 394 1815 29 356 12 1297 -27 1487 -80
393 -649 1095 -1327 1635 -68 54 -134 106 -148 116 l-25 17 189 748 c104 411
273 1082 376 1492 256 1014 844 3346 938 3717 43 167 79 303 83 303 3 0 79
-79 170 -176 170 -183 446 -450 654 -635 989 -873 2038 -1440 3079 -1664 441
-94 831 -128 1476 -128 613 0 1103 41 1705 143 553 94 745 138 2190 506 719
183 1284 296 1690 339 176 19 562 21 740 5 503 -45 995 -170 1467 -371 185
-79 448 -212 583 -294 219 -134 208 -130 315 -130 87 0 100 3 148 30 68 37
135 112 157 173 9 26 20 95 25 153 16 178 155 1205 330 2444 278 1966 777
5444 1080 7524 60 417 69 492 61 537 -18 97 -77 183 -155 229 -110 64 -774
189 -1236 231 -258 24 -817 25 -1062 1 -646 -63 -1213 -203 -1888 -465 -241
-93 -536 -222 -1015 -442 -531 -244 -703 -320 -945 -415 -1247 -490 -2113
-433 -3239 212 -351 201 -694 439 -1421 983 -702 525 -1028 752 -1425 989
-207 125 -592 318 -776 391 l-135 54 14 71 c19 96 10 285 -17 390 -146 556
-752 850 -1282 621 -212 -91 -396 -276 -485 -487 -19 -46 -74 -242 -129 -462
-53 -210 -141 -557 -195 -772 -54 -214 -232 -919 -395 -1565 -163 -646 -343
-1359 -400 -1585 -57 -225 -210 -833 -341 -1350 -295 -1171 -488 -1939 -1200
-4760 -311 -1232 -650 -2577 -754 -2990 -104 -412 -262 -1036 -350 -1385 -88
-349 -224 -887 -301 -1196 -77 -308 -144 -565 -148 -572 -5 -8 -39 -8 -126 -2
-162 13 -673 12 -870 0 -799 -52 -1480 -224 -1841 -466 -232 -156 -324 -309
-397 -660 -63 -298 -81 -575 -74 -1123 6 -512 30 -818 93 -1230 14 -90 24
-164 22 -166 -6 -4 -281 -45 -408 -60 -296 -34 -422 -40 -865 -40 -454 0 -545
5 -919 45 l-179 20 -76 68 c-440 396 -986 702 -1786 1002 -534 200 -1338 427
-2002 565 l-31 6 46 42 c128 115 299 274 406 377 103 101 122 115 150 113 17
-1 78 -7 135 -12 398 -41 865 25 1264 180 73 28 189 64 259 79 384 86 747 264
1088 532 58 46 177 155 266 243 328 327 578 685 818 1170 178 359 316 713 382
980 203 821 213 1639 28 2250 -14 44 -38 157 -54 250 -122 699 -363 1236 -764
1702 -53 62 -132 145 -175 184 l-78 71 -7 282 c-24 1002 -147 1903 -391 2876
-132 529 -232 852 -340 1105 -1033 2412 -2551 4310 -4460 5576 -1502 996
-3227 1581 -5080 1724 -186 14 -812 37 -880 33 -16 -1 -91 -3 -165 -5z m805
-693 c536 -35 999 -96 1485 -196 2841 -583 5216 -2320 6814 -4982 408 -681
861 -1605 989 -2022 277 -893 459 -1825 532 -2710 17 -214 36 -552 31 -558 -2
-2 -17 3 -33 11 -93 48 -371 130 -543 161 -295 53 -677 48 -977 -12 l-92 -18
-6 65 c-54 560 -118 984 -206 1358 -730 3108 -2980 5853 -6059 7392 -1509 754
-3084 1165 -4727 1233 -161 7 -291 14 -289 15 6 6 427 91 606 122 441 76 941
130 1413 151 230 10 839 5 1062 -10z m21402 -499 c57 -29 111 -85 135 -139 38
-86 34 -107 -185 -977 -113 -445 -304 -1206 -426 -1690 -122 -484 -327 -1296
-456 -1805 -128 -509 -311 -1231 -405 -1605 -94 -374 -218 -864 -275 -1090
-57 -225 -183 -725 -280 -1110 -97 -385 -223 -884 -280 -1110 -103 -407 -306
-1212 -685 -2715 -891 -3537 -1097 -4350 -1103 -4356 -2 -3 -38 8 -78 24 -138
55 -202 67 -345 66 l-131 -1 127 506 c71 278 219 866 330 1306 111 440 302
1198 425 1685 232 917 465 1842 805 3190 109 432 306 1217 439 1745 133 528
271 1073 306 1210 81 316 784 3104 1430 5670 141 561 263 1036 271 1054 31 74
87 126 173 158 51 19 156 11 208 -16z m-23962 -441 c1330 -98 2496 -390 3740
-935 203 -89 690 -332 905 -452 646 -361 1251 -776 1795 -1232 339 -284 780
-706 1072 -1025 1176 -1285 1991 -2781 2383 -4371 85 -345 141 -671 189 -1110
38 -337 46 -478 30 -487 -8 -5 -72 -40 -142 -78 -71 -38 -166 -94 -212 -124
l-84 -55 -5 42 c-3 23 -8 87 -11 142 -15 255 -64 638 -121 950 -241 1318 -795
2618 -1630 3826 -194 281 -427 582 -578 749 -195 215 -687 706 -896 896 -628
568 -1262 1041 -1925 1436 -487 290 -978 532 -1481 731 -1382 548 -2821 759
-4269 626 -1628 -149 -3194 -746 -4538 -1731 -81 -59 -150 -108 -152 -108 -2
0 56 57 129 128 673 647 1395 1185 2237 1668 307 176 359 199 535 244 622 158
1215 243 1984 284 126 7 907 -3 1045 -14z m24743 -741 c292 -129 600 -301 937
-524 239 -158 434 -299 945 -680 721 -538 1016 -746 1350 -952 1412 -873 2534
-971 4070 -355 204 82 410 173 870 385 869 400 1258 554 1731 686 800 224
1609 264 2449 120 96 -17 192 -33 213 -36 21 -3 40 -10 43 -14 3 -5 -7 -89
-21 -186 -14 -98 -71 -486 -125 -863 -55 -377 -111 -764 -125 -860 -243 -1652
-980 -6827 -1069 -7508 -19 -145 -36 -266 -39 -268 -2 -2 -77 30 -168 72 -588
273 -1148 431 -1769 500 -192 21 -611 29 -805 15 -525 -39 -1131 -160 -2300
-461 -1300 -334 -1840 -440 -2570 -504 -537 -48 -1226 -46 -1685 5 -1221 133
-2481 821 -3655 1994 -312 311 -644 682 -645 718 0 10 119 491 266 1070 512
2032 597 2368 1089 4317 272 1081 574 2278 671 2660 201 799 183 730 195 730
5 0 71 -27 147 -61z m-25393 -1409 c1008 -65 1911 -295 2645 -674 246 -126
531 -317 686 -457 l57 -52 -64 7 c-509 53 -1330 58 -1904 10 -1829 -150 -3418
-768 -4884 -1898 -117 -90 -492 -397 -537 -440 -6 -6 -56 -51 -110 -101 -882
-803 -1692 -1753 -2610 -3059 l-69 -99 -3 119 c-4 129 13 572 29 774 116 1494
568 2753 1333 3710 194 242 465 523 696 721 512 439 1128 793 1808 1039 596
216 1277 353 1972 399 184 12 771 13 955 1z m7048 -6356 c457 -77 859 -416
1036 -874 16 -41 42 -129 57 -195 26 -111 28 -135 28 -335 1 -229 -7 -289 -61
-490 -46 -172 -102 -301 -206 -472 -211 -345 -492 -602 -799 -729 -633 -263
-1359 23 -1664 656 -95 197 -141 382 -151 610 -13 292 43 566 175 850 109 235
223 406 380 567 339 348 749 488 1205 412z m-25420 -638 c70 -21 127 -69 231
-191 255 -302 633 -690 926 -951 475 -422 846 -711 1975 -1534 678 -494 972
-713 1375 -1024 658 -508 771 -593 1240 -927 948 -677 1879 -1301 2505 -1679
511 -309 918 -533 1410 -777 182 -90 337 -168 345 -172 25 -13 31 -240 26
-866 -4 -557 -9 -678 -41 -1055 -121 -1415 -451 -2585 -965 -3418 -141 -229
-345 -496 -482 -630 l-54 -52 -44 21 c-25 12 -144 73 -265 137 -1068 558
-2070 1239 -3070 2086 -241 204 -347 297 -745 655 -507 457 -551 494 -685 586
-204 140 -445 207 -1330 370 -1159 214 -1786 387 -2244 620 -307 156 -510 338
-600 537 -54 119 -73 268 -50 394 50 274 444 603 1484 1239 632 387 826 523
1005 704 183 185 237 299 227 484 -6 123 -25 186 -112 362 -162 332 -436 687
-1289 1675 -599 693 -838 987 -1008 1240 -166 248 -276 513 -344 835 -35 165
-44 458 -19 620 48 316 205 588 395 685 84 43 128 49 203 26z m30659 -842
c330 -45 611 -162 884 -365 103 -77 302 -264 292 -274 -4 -4 -35 2 -70 14
-301 100 -714 106 -1069 16 -342 -87 -675 -257 -992 -507 -132 -104 -439 -413
-547 -551 -399 -509 -692 -1096 -910 -1822 -64 -213 -121 -543 -151 -865 -19
-201 -16 -651 5 -840 76 -685 324 -1253 719 -1642 48 -49 85 -88 82 -88 -24 0
-184 47 -259 77 -350 137 -647 363 -878 671 -297 394 -472 876 -540 1487 -17
155 -17 677 0 845 30 297 87 652 128 795 197 694 528 1371 911 1862 523 672
1190 1096 1863 1187 144 19 394 20 532 0z m733 -1209 c299 -49 531 -174 743
-401 256 -272 416 -644 489 -1129 26 -173 26 -691 0 -890 -60 -459 -124 -719
-264 -1074 -363 -920 -880 -1564 -1498 -1868 -519 -254 -1036 -225 -1443 82
-351 264 -577 708 -659 1295 -22 159 -25 673 -5 855 38 337 88 581 172 835
396 1205 1082 2025 1885 2255 188 53 407 69 580 40z m-7116 -1590 c90 -23 162
-66 237 -140 104 -102 151 -206 161 -357 14 -212 -56 -410 -198 -563 -76 -81
-148 -128 -252 -167 -72 -27 -94 -31 -187 -31 -83 0 -119 5 -170 22 -313 108
-447 423 -334 783 33 104 80 182 162 269 90 96 212 168 327 192 47 11 204 6
254 -8z m-23852 -362 c343 -397 793 -943 793 -963 0 -4 -42 -36 -92 -72 -304
-212 -610 -335 -955 -383 -100 -14 -163 -16 -340 -11 -120 3 -252 9 -293 12
-67 5 -79 3 -110 -18 -51 -34 -84 -106 -76 -163 7 -46 41 -96 79 -117 11 -6
79 -26 151 -44 282 -73 614 -186 844 -287 l124 -54 -214 -133 c-591 -368 -909
-606 -1150 -859 l-96 -100 -79 87 c-348 384 -596 838 -684 1252 -18 81 -23
139 -23 255 0 143 1 154 31 238 130 368 633 825 1458 1325 184 111 427 252
437 252 4 0 92 -98 195 -217z m1044 -1345 c21 -43 39 -84 39 -92 0 -33 -207
-192 -470 -361 -82 -52 -153 -95 -159 -95 -6 0 -69 28 -139 63 -70 35 -162 79
-204 97 l-78 34 113 34 c271 82 569 233 786 399 53 40 50 43 112 -79z m25369
-1360 c40 -100 115 -258 166 -350 l36 -67 -78 -93 c-1597 -1900 -3880 -3160
-6274 -3462 -477 -61 -850 -81 -1345 -73 -468 8 -727 27 -1145 87 -1288 184
-2473 634 -3540 1343 -155 103 -301 208 -380 275 -23 20 49 -11 214 -93 1191
-590 2410 -958 3621 -1094 434 -49 548 -55 1100 -55 554 -1 653 4 1070 49
1389 151 2730 605 3925 1328 938 568 1830 1347 2504 2190 43 53 81 97 85 97 4
0 22 -37 41 -82z m-15953 -922 c394 -155 880 -320 1232 -417 l193 -54 126
-140 c289 -322 713 -732 1031 -999 317 -266 773 -602 1211 -891 1248 -824
2630 -1364 4120 -1609 301 -50 674 -95 915 -111 50 -3 104 -8 120 -10 17 -2
167 -9 335 -16 313 -12 770 -8 1080 11 1809 108 3595 644 5205 1563 290 166
464 274 787 493 126 85 231 154 235 154 3 0 65 -32 136 -71 1149 -628 2444
-1126 3582 -1378 332 -73 804 -154 1031 -176 40 -4 77 -11 84 -15 9 -6 1 -45
-33 -156 -306 -998 -493 -1949 -558 -2839 -17 -220 -17 -808 -1 -995 52 -600
157 -1026 352 -1425 102 -208 243 -418 386 -574 l68 -74 -104 7 c-1214 80
-2534 401 -3942 958 -275 108 -277 109 -283 141 -3 18 -32 196 -66 397 -143
869 -298 1675 -487 2528 -60 268 -70 294 -124 335 -65 49 -184 23 -229 -50
-30 -49 -34 -143 -20 -566 24 -748 84 -1375 236 -2448 30 -212 55 -412 55
-445 0 -81 75 -746 126 -1114 l6 -46 -118 -37 c-411 -126 -851 -202 -1444
-249 -258 -20 -1287 -17 -1600 5 -428 30 -841 72 -1220 123 -247 33 -502 73
-508 79 -3 3 5 94 18 203 56 459 16 759 -144 1087 -189 385 -506 676 -906 830
-190 74 -247 83 -1100 185 -377 45 -1830 219 -3230 388 -2483 298 -2550 306
-2730 306 -135 0 -212 -5 -285 -18 -271 -49 -514 -151 -737 -309 -50 -36 -77
-50 -74 -39 3 9 48 159 100 332 189 628 449 1446 686 2155 66 198 120 373 120
389 0 40 -34 107 -67 131 -18 13 -48 21 -88 23 -99 6 -112 -7 -230 -243 -270
-538 -606 -1324 -871 -2035 -54 -146 -99 -266 -100 -268 -1 -2 -130 13 -287
33 -1188 148 -2314 441 -3432 892 -143 58 -272 110 -287 116 -16 6 -28 14 -28
17 0 3 32 43 72 90 682 814 1149 2016 1362 3500 94 658 130 1177 130 1917 1
277 2 503 3 503 1 0 86 -33 190 -74z m27870 27 c403 -161 1388 -1057 1644
-1495 63 -108 76 -161 88 -358 35 -577 19 -1112 -49 -1593 -187 -1326 -774
-2275 -1673 -2702 -236 -112 -455 -169 -646 -167 -201 2 -355 35 -661 143
-444 156 -846 279 -1130 345 -103 24 -125 37 -165 97 -63 95 -116 271 -145
482 -18 129 -24 569 -11 780 41 660 176 1485 381 2321 159 652 287 1042 396
1205 65 99 234 266 368 366 389 288 988 549 1386 602 84 12 140 5 217 -26z
m-1996 -50 c-286 -216 -499 -456 -617 -698 -189 -386 -510 -1633 -660 -2562
-6 -38 -19 -41 -73 -14 -47 24 -79 90 -121 253 -57 218 -95 484 -131 918 -19
221 -23 338 -23 710 -1 531 16 746 74 941 25 84 53 125 118 171 184 128 713
268 1222 322 196 21 209 23 258 24 l43 2 -90 -67z m-9241 -79 c134 -137 412
-342 586 -431 41 -21 74 -41 74 -45 0 -11 -387 -350 -570 -499 -1587 -1289
-3504 -2128 -5515 -2414 -377 -53 -388 -52 -130 15 1515 396 2852 1063 4040
2015 470 377 1031 918 1385 1338 36 42 67 77 70 77 3 0 30 -25 60 -56z m7319
-3548 c98 -150 271 -257 495 -307 l58 -13 -6 -70 c-4 -39 -11 -120 -17 -181
-17 -188 -23 -746 -10 -895 46 -532 152 -848 356 -1068 70 -76 218 -183 270
-196 16 -4 25 -12 22 -19 -5 -13 -77 -299 -527 -2082 l-236 -940 -75 -22
c-336 -103 -827 -201 -1237 -247 l-133 -15 -112 34 c-476 144 -809 431 -1032
889 -147 303 -233 626 -282 1066 -24 220 -24 826 0 1105 53 594 152 1164 318
1830 87 349 244 896 299 1039 l10 26 284 0 c433 0 780 24 1177 80 113 16 223
34 245 39 82 19 88 16 133 -53z m2072 -3002 c143 -47 259 -90 259 -95 0 -5
-51 -213 -114 -461 -63 -249 -237 -939 -386 -1533 -301 -1195 -470 -1866 -988
-3920 -193 -764 -471 -1865 -617 -2445 -146 -580 -324 -1284 -395 -1565 -71
-280 -201 -798 -290 -1150 -89 -352 -208 -824 -265 -1050 -57 -225 -269 -1065
-470 -1865 -201 -800 -388 -1538 -415 -1640 -26 -102 -87 -341 -135 -531 l-87
-347 -163 106 -163 106 -61 151 -61 150 125 500 c119 474 327 1297 775 3075
108 432 374 1485 590 2340 216 855 481 1908 590 2340 232 918 502 1991 670
2655 65 259 198 785 295 1170 97 385 273 1083 391 1550 119 468 308 1215 420
1660 243 959 223 885 231 885 3 0 122 -39 264 -86z m1949 -148 c0 -10 -234
-305 -360 -452 -162 -191 -627 -659 -800 -806 -175 -149 -235 -195 -229 -178
3 8 79 307 169 664 l164 648 55 -6 c163 -17 369 -18 480 -2 132 18 313 63 426
104 86 32 95 34 95 28z m-23732 -861 c151 -18 276 -35 278 -38 5 -5 -64 -606
-197 -1732 -84 -702 -84 -819 1 -1095 78 -255 242 -493 472 -687 188 -158 311
-372 353 -612 17 -98 19 -208 4 -341 -5 -52 -39 -394 -74 -759 -35 -365 -66
-665 -68 -667 -2 -2 -449 50 -993 115 -963 115 -992 120 -1064 150 -335 142
-593 421 -709 767 -72 214 -77 370 -26 796 416 3502 375 3212 484 3432 195
398 577 662 1021 706 101 10 195 4 518 -35z m2668 -320 c1077 -129 1990 -240
2028 -245 192 -29 449 -203 605 -410 106 -141 193 -346 221 -520 15 -101 12
-260 -10 -430 -11 -85 -108 -888 -215 -1785 -108 -896 -205 -1667 -215 -1713
-62 -263 -233 -514 -461 -675 -91 -64 -254 -141 -369 -172 -78 -22 -123 -28
-250 -32 -152 -4 -179 -1 -1484 156 -731 88 -1330 162 -1331 163 -1 2 17 204
41 450 84 864 104 1101 104 1211 0 395 -166 769 -462 1038 -242 222 -310 311
-379 499 -88 241 -88 232 65 1535 141 1210 136 1165 146 1165 4 0 889 -106
1966 -235z m3404 -409 c227 -28 339 -56 465 -116 311 -149 536 -420 630 -760
39 -141 43 -334 13 -579 l-23 -185 -115 -68 c-148 -89 -245 -163 -350 -268
-181 -181 -306 -415 -362 -673 -18 -85 -22 -135 -22 -297 -1 -213 7 -278 60
-491 66 -271 198 -569 358 -811 38 -58 58 -79 79 -84 25 -5 27 -9 22 -37 -3
-18 -16 -128 -30 -245 -14 -118 -32 -244 -40 -281 -92 -437 -450 -790 -900
-887 -141 -30 -250 -29 -551 6 -153 17 -285 34 -293 36 -10 3 3 20 40 51 281
242 482 588 548 948 11 61 57 416 101 790 44 374 138 1168 209 1765 72 597
133 1123 136 1170 12 156 -24 424 -81 596 -33 102 -131 305 -183 382 -23 34
-41 65 -41 70 0 5 27 5 63 1 34 -5 154 -19 267 -33z m-8290 -653 c0 -17 -65
-560 -175 -1461 -25 -205 -45 -377 -45 -383 0 -24 -159 80 -244 160 -271 257
-375 638 -275 1001 86 309 334 570 641 675 87 29 98 30 98 8z m15615 -443 c99
-37 242 -89 317 -116 l137 -48 -76 -28 c-86 -31 -149 -66 -213 -117 -51 -40
-140 -132 -140 -144 0 -5 -42 31 -94 78 l-93 87 -22 166 c-12 92 -25 176 -28
186 -4 15 -2 18 13 12 11 -4 100 -38 199 -76z m2435 -699 c246 -51 555 -100
817 -132 122 -15 194 -27 197 -35 6 -17 -19 -383 -45 -634 -122 -1221 -388
-2106 -745 -2480 -202 -211 -580 -372 -933 -397 l-86 -6 -50 40 c-120 95 -271
272 -366 430 -170 280 -288 656 -331 1048 -18 162 -18 837 0 1000 15 142 47
330 67 399 20 67 19 102 -5 126 -23 23 -77 27 -103 8 -25 -20 -81 -176 -121
-338 -124 -507 -176 -1211 -121 -1637 41 -316 132 -618 261 -876 20 -38 34
-70 32 -72 -7 -7 -187 89 -265 141 -77 51 -83 57 -97 107 -56 197 -271 1044
-282 1114 -6 38 -2 49 45 127 106 175 180 365 220 566 80 403 40 779 -121
1144 l-39 88 21 75 c25 92 39 119 82 160 73 70 44 67 743 74 1000 9 982 9
1225 -40z m4095 17 c-3 -7 -163 -638 -355 -1403 -420 -1666 -647 -2565 -820
-3250 -71 -280 -260 -1030 -420 -1665 -160 -635 -331 -1312 -380 -1505 -49
-192 -278 -1104 -510 -2025 -232 -921 -424 -1682 -426 -1690 -11 -32 -1287
3083 -1714 4185 -200 516 -460 1209 -460 1226 0 4 39 19 88 34 741 220 1315
515 1671 860 197 191 328 380 486 700 178 361 313 739 454 1270 203 765 384
1856 482 2901 l12 130 254 12 c522 25 989 86 1428 186 222 51 216 50 210 34z
m-6779 -270 c139 -189 240 -418 280 -633 13 -71 15 -126 11 -265 -7 -212 -31
-332 -102 -501 -69 -165 -209 -346 -325 -421 -58 -37 -320 -122 -575 -186
-1548 -390 -3394 -340 -5205 141 l-125 34 -34 59 c-94 163 -185 403 -227 596
-22 100 -27 149 -27 263 0 159 14 241 63 359 60 144 171 279 311 379 l67 47
195 -34 c985 -175 2072 -267 2982 -253 717 12 1263 72 1810 198 254 58 598
170 775 252 30 14 61 26 68 26 6 1 33 -27 58 -61z m-16101 -740 c104 -86 277
-188 398 -233 33 -12 47 -23 47 -36 0 -11 -14 -131 -32 -267 -39 -306 -44
-582 -14 -747 68 -373 233 -692 496 -955 169 -170 336 -287 533 -372 51 -22
97 -46 103 -53 13 -17 137 -49 264 -69 52 -9 1204 -148 2560 -311 1356 -162
2593 -311 2750 -330 1429 -173 1424 -173 1610 -157 724 62 1316 569 1495 1280
17 69 60 360 71 485 4 42 10 77 14 77 4 0 72 -16 151 -35 622 -149 1330 -255
2064 -307 240 -17 1102 -17 1335 0 797 58 1479 181 2061 371 68 22 124 39 125
38 1 -1 40 -153 87 -337 376 -1483 976 -3264 1750 -5194 l76 -188 -57 -60
c-74 -78 -193 -171 -310 -242 -868 -525 -2910 -891 -5317 -952 l-250 -6 -55
74 c-504 676 -1177 1398 -1635 1754 -665 517 -1539 943 -2510 1223 -524 150
-1084 257 -1645 312 -267 26 -857 37 -1103 20 -864 -61 -1525 -290 -1927 -668
l-87 -82 -129 172 c-733 975 -1529 1786 -2364 2406 -1021 759 -2096 1232
-3187 1400 -244 38 -420 53 -705 58 -159 3 -288 9 -288 13 0 13 154 214 259
340 120 144 381 407 526 530 731 623 1642 1003 2590 1079 195 16 194 16 250
-31z m20035 -1340 c-54 -282 -155 -705 -236 -985 -153 -531 -337 -959 -529
-1228 -267 -376 -797 -677 -1611 -914 -39 -12 -76 -21 -81 -21 -15 0 -480
1404 -469 1417 1 1 51 -14 111 -33 172 -54 328 -83 595 -108 25 -2 66 -9 92
-16 37 -9 59 -9 95 0 55 13 112 23 268 45 221 31 420 93 630 195 317 154 489
302 677 585 172 258 343 674 449 1092 13 51 25 90 27 88 2 -2 -6 -54 -18 -117z
m-23069 -1263 c966 -97 1903 -450 2839 -1070 501 -332 916 -672 1394 -1144
517 -511 963 -1038 1431 -1691 l68 -95 -27 -130 c-89 -436 -86 -902 10 -1635
28 -213 81 -555 173 -1120 145 -882 196 -1334 208 -1825 16 -668 -91 -1207
-314 -1587 -201 -343 -868 -737 -1747 -1034 -789 -266 -1634 -422 -2576 -474
-231 -13 -935 -13 -1175 0 -502 27 -1094 95 -1360 155 -773 175 -1186 655
-1187 1380 0 471 152 838 492 1189 357 369 890 655 1556 837 l181 50 99 -39
c516 -205 1207 -306 1872 -273 536 26 1018 108 1567 265 218 62 232 68 266
104 61 65 60 159 -2 221 -59 60 -82 60 -352 8 -421 -81 -713 -113 -1102 -123
-738 -20 -1465 117 -1968 368 -97 48 -98 49 -151 131 -180 280 -424 716 -619
1107 -937 1873 -1304 3638 -1048 5031 73 397 213 828 401 1241 l62 136 97 12
c264 32 617 34 912 5z m9079 -3280 c1030 -90 2015 -360 2880 -791 278 -139
459 -242 675 -387 300 -200 518 -380 784 -647 529 -532 1058 -1189 1525 -1894
169 -255 393 -613 462 -738 2 -3 -4 -4 -13 -2 -122 28 -796 141 -1088 183
-2197 314 -4404 302 -6594 -35 -350 -54 -934 -158 -1012 -180 -14 -4 -18 11
-28 93 -25 203 -84 594 -161 1063 -171 1047 -211 1386 -212 1805 -1 717 166
1038 665 1275 314 150 745 242 1277 274 135 8 672 -4 840 -19z m12395 -2683
c113 -276 355 -866 539 -1310 372 -900 752 -1819 845 -2046 34 -82 61 -155 61
-162 0 -19 -66 -129 -126 -209 -63 -85 -201 -219 -304 -296 -481 -360 -1299
-587 -2248 -625 -153 -6 -177 -9 -204 -28 -55 -37 -73 -71 -73 -136 0 -101 57
-153 183 -167 125 -13 829 -10 987 5 753 71 1326 248 1761 543 183 124 347
274 462 423 28 37 21 40 242 -114 482 -338 797 -597 1121 -920 324 -323 525
-586 660 -865 120 -246 154 -388 146 -605 -5 -153 -19 -214 -77 -338 -129
-274 -398 -511 -820 -721 -203 -101 -325 -150 -574 -233 -378 -125 -978 -257
-1361 -298 -167 -18 -564 -24 -750 -11 -1189 83 -2279 499 -3100 1183 -501
417 -938 1027 -1085 1513 -93 306 -319 933 -484 1338 -481 1185 -1051 2286
-1690 3270 -42 64 -76 121 -76 126 0 4 96 11 213 15 324 10 856 42 1107 66 58
6 224 22 370 36 1341 128 2483 371 3242 690 273 115 574 282 736 408 l57 44
18 -36 c9 -21 109 -263 222 -540z"/>
<path d="M67432 68150 c-1231 -86 -2421 -590 -3587 -1521 -291 -231 -486 -404
-823 -727 l-183 -176 -399 199 -399 199 -89 4 c-76 4 -96 1 -148 -20 -69 -28
-527 -351 -575 -406 -77 -88 -107 -223 -75 -338 14 -47 77 -149 311 -499 l295
-440 -10 -40 c-21 -86 -11 -209 26 -325 4 -12 -29 -25 -148 -59 -222 -64 -251
-76 -313 -132 -109 -100 -135 -210 -96 -405 104 -512 392 -923 871 -1239 71
-47 149 -94 173 -105 124 -55 281 -24 381 76 15 16 71 90 124 164 52 74 98
139 103 144 4 5 29 -10 56 -32 64 -54 161 -99 247 -113 l71 -12 76 -101 c388
-514 535 -706 562 -734 18 -18 61 -48 97 -65 87 -43 196 -50 283 -17 57 21
483 316 556 383 71 67 111 162 111 262 0 49 -85 740 -105 848 -4 27 0 30 205
132 1436 718 2498 1610 3157 2650 160 253 336 593 442 858 113 280 242 716
271 915 26 179 -36 359 -169 488 -146 143 -327 181 -896 189 -154 2 -335 0
-403 -5z m846 -225 c151 -16 201 -31 268 -76 107 -72 172 -224 150 -345 l-8
-37 -37 59 c-48 76 -108 128 -197 171 -59 28 -93 37 -194 48 -625 73 -1237 28
-1898 -139 l-133 -34 3 70 3 70 60 19 c129 41 469 120 635 148 150 26 361 51
545 65 120 9 667 -3 803 -19z m-2258 -370 c0 -492 302 -1128 759 -1599 103
-105 270 -251 381 -333 95 -69 278 -174 393 -226 62 -27 114 -51 116 -53 6 -6
-182 -224 -329 -382 -116 -125 -247 -252 -445 -432 -277 -252 -789 -622 -1205
-872 -623 -375 -1280 -686 -2120 -1006 -212 -80 -230 -85 -305 -86 -121 -1
-163 23 -335 195 -200 200 -303 320 -288 336 12 11 419 302 865 618 221 157
268 198 303 270 21 42 25 65 25 140 0 103 -16 144 -88 222 -60 65 -125 95
-219 101 -133 8 -81 39 -850 -510 -230 -164 -424 -301 -430 -303 -20 -8 -204
328 -269 490 -41 104 -43 187 -6 269 57 124 590 744 1002 1165 843 862 1720
1505 2587 1897 111 50 438 184 451 184 4 0 7 -38 7 -85z m-3682 -1813 l353
-177 -39 -38 -39 -38 -308 153 -308 153 -71 0 c-91 -1 -111 -12 -371 -200
-172 -124 -200 -142 -203 -124 -5 31 15 72 51 106 33 31 351 260 433 313 38
23 59 30 98 29 46 0 89 -19 404 -177z m1231 -1517 c16 -8 31 -21 34 -29 5 -12
-6 -15 -61 -14 -44 1 -77 -4 -97 -14 -16 -9 -304 -212 -640 -452 -335 -239
-611 -433 -613 -431 -3 2 4 19 15 37 13 24 195 159 638 476 560 400 622 442
657 442 22 0 52 -7 67 -15z m-1649 -462 c25 -47 69 -126 98 -175 l52 -88 -30
-42 c-60 -83 -75 -198 -40 -298 11 -30 21 -59 23 -64 1 -5 -7 -10 -18 -11 -11
-1 -27 -6 -36 -9 -10 -4 -20 -3 -24 3 -9 16 -25 13 -25 -4 0 -11 11 -15 40
-15 22 0 40 4 40 8 0 4 9 8 19 9 14 1 18 -3 14 -14 -4 -10 -2 -14 4 -10 5 3
23 -8 39 -25 16 -17 24 -28 18 -25 -9 5 -11 -19 -5 -53 1 -3 10 -6 20 -6 24 0
17 16 -7 17 -14 0 -13 2 3 9 l20 9 -20 0 c-16 1 -17 3 -6 10 15 10 42 -8 34
-23 -3 -4 5 -5 18 -1 22 7 23 7 9 -10 -14 -17 -14 -17 8 -6 13 7 22 8 22 2 0
-13 231 -12 248 1 9 8 18 5 32 -12 11 -12 17 -27 14 -32 -3 -4 -1 -7 4 -6 5 2
44 -36 87 -85 68 -78 75 -90 63 -105 -12 -15 -11 -16 5 -3 12 10 21 11 28 4 8
-8 7 -13 -2 -18 -8 -6 -10 -4 -4 6 7 12 6 12 -7 1 -9 -7 -18 -31 -20 -53 -3
-32 -1 -38 11 -34 9 4 -3 -11 -27 -33 -23 -21 -42 -45 -43 -53 0 -8 -4 -6 -9
6 -8 20 -9 20 -9 -1 -1 -11 -10 -30 -21 -42 -11 -12 -20 -27 -20 -33 0 -7 -9
-2 -20 11 l-20 23 4 -29 c2 -16 1 -23 -1 -16 -7 19 -19 15 -52 -19 -35 -35
-38 -44 -14 -53 15 -6 14 -8 -3 -24 -35 -31 -58 -47 -51 -35 4 6 3 14 -3 18
-5 3 -10 2 -10 -4 0 -11 -109 44 -128 64 -4 5 -2 6 3 2 6 -3 12 3 12 14 1 12
-5 19 -15 19 -15 0 -15 2 -2 10 8 5 12 10 8 10 -3 0 -15 3 -25 6 -15 5 -15 4
-3 -5 13 -9 13 -11 0 -11 -9 0 -21 5 -28 12 -6 6 -15 9 -18 5 -4 -4 13 -15 37
-26 27 -12 36 -20 24 -20 -11 0 -55 25 -98 55 -61 43 -77 59 -72 74 3 10 -1
25 -10 34 -18 17 -50 22 -40 6 3 -5 13 -10 21 -10 8 0 14 -7 14 -16 0 -23 -8
-17 -139 110 -47 45 -60 64 -56 80 3 12 2 15 -1 9 -3 -7 -13 -13 -21 -13 -14
0 -14 2 0 18 10 10 14 22 10 25 -3 4 -1 7 5 7 20 0 13 16 -7 17 -11 1 -21 -6
-24 -17 -3 -14 -1 -17 12 -13 12 5 13 3 4 -7 -13 -14 -33 -5 -33 16 0 8 -6 14
-12 14 -14 0 -113 134 -107 145 2 3 -4 11 -13 16 -11 6 -15 16 -11 26 4 11 3
14 -5 9 -8 -5 -10 -1 -5 10 4 11 3 15 -5 10 -14 -8 -36 30 -26 46 4 6 3 8 -3
5 -6 -4 -14 0 -17 9 -4 10 -2 13 7 9 6 -4 5 -1 -4 7 -9 7 -14 19 -11 27 3 9 0
11 -8 6 -9 -6 -9 -3 0 15 13 24 -1 52 -15 29 -5 -8 -4 -10 3 -5 7 4 12 3 12
-3 0 -22 -18 -19 -29 5 -10 22 -9 28 5 39 16 11 16 12 0 18 -10 4 -15 3 -11
-3 3 -6 3 -10 0 -10 -13 0 -55 108 -80 204 -49 190 -44 270 20 312 24 15 364
121 395 123 9 0 33 -33 60 -86z"/>
<path d="M65139 66300 c-275 -35 -535 -184 -699 -402 -259 -343 -282 -805 -58
-1168 60 -97 181 -228 278 -300 84 -62 229 -132 335 -160 121 -33 349 -39 471
-12 329 73 584 273 726 568 79 166 92 227 92 444 -1 214 -13 278 -88 435 -128
270 -340 459 -615 549 -137 45 -311 63 -442 46z m379 -248 c241 -79 431 -263
516 -500 35 -98 33 -110 -7 -37 -103 190 -254 334 -442 421 -138 64 -212 79
-385 78 -175 0 -248 -15 -387 -78 -71 -33 -75 -33 -48 -10 40 34 144 92 208
116 100 39 166 48 312 44 124 -3 151 -7 233 -34z m32 -362 c0 -5 3 -9 8 -9 19
3 25 -2 12 -12 -12 -8 -11 -9 7 -7 21 3 83 -45 83 -64 0 -5 9 -19 20 -30 13
-14 18 -29 14 -42 -4 -17 -3 -18 5 -6 22 31 80 -148 81 -248 0 -33 -4 -51 -10
-47 -6 4 -7 -1 -3 -10 3 -10 0 -21 -8 -26 -10 -6 -11 -9 -1 -9 14 0 7 -45 -11
-67 -5 -7 -7 -13 -4 -13 13 0 -67 -144 -100 -181 -118 -131 -326 -192 -503
-150 -238 57 -419 304 -396 538 8 82 39 178 73 230 48 75 188 119 348 110 120
-7 209 -36 300 -101 44 -30 50 -28 51 21 3 69 14 133 25 133 5 0 9 -4 9 -10z"/>
<path d="M34647 46220 c-312 -35 -607 -230 -811 -535 -405 -606 -339 -1481
146 -1941 180 -170 368 -255 610 -274 65 -5 121 -11 126 -14 4 -2 152 -21 327
-42 302 -34 326 -36 428 -25 788 85 1301 1076 1008 1951 -129 384 -424 685
-755 770 -41 10 -219 35 -397 54 -178 20 -358 41 -399 46 -124 16 -201 19
-283 10z m238 -425 c173 -45 335 -195 430 -398 62 -130 86 -235 92 -395 l6
-144 -74 -74 c-172 -175 -374 -264 -594 -264 -129 0 -226 24 -344 85 -108 56
-234 169 -308 277 -74 108 -86 134 -78 177 12 64 67 224 98 286 113 225 306
399 497 449 73 19 202 20 275 1z"/>
<path d="M26385 27663 c-121 -8 -359 -47 -479 -78 -562 -145 -1006 -414 -1353
-819 -267 -311 -427 -665 -478 -1052 -20 -150 -19 -397 1 -531 94 -634 517
-1194 1142 -1511 386 -196 881 -297 1296 -264 185 14 215 29 216 105 0 41 -34
87 -65 87 -54 0 -278 24 -380 41 -254 42 -467 111 -700 224 -551 269 -925 714
-1040 1235 -26 118 -31 391 -10 525 55 350 216 657 484 925 330 329 773 545
1283 627 160 25 566 25 727 0 498 -79 933 -293 1241 -613 147 -152 220 -255
309 -433 228 -453 224 -996 -10 -1463 -22 -43 -39 -88 -39 -101 0 -52 57 -87
107 -64 12 5 48 47 78 92 412 613 404 1409 -21 2037 -201 298 -449 520 -799
716 -419 235 -977 351 -1510 315z"/>
<path d="M29285 26805 c-29 -28 -34 -88 -11 -121 32 -46 147 -288 189 -399
245 -650 190 -1377 -152 -1979 -420 -741 -1191 -1272 -2134 -1471 -419 -89
-924 -98 -1352 -25 -889 151 -1672 646 -2090 1320 -177 286 -309 648 -356 978
-9 68 -16 86 -37 102 -31 25 -63 25 -93 1 -23 -19 -24 -23 -23 -178 3 -525
211 -1087 568 -1529 486 -603 1250 -1032 2083 -1169 249 -41 357 -49 633 -49
283 0 432 13 695 59 608 107 1195 369 1660 741 144 115 391 362 496 494 224
284 409 637 504 966 113 388 134 777 64 1154 -66 352 -214 698 -417 980 -88
121 -119 150 -164 150 -28 0 -46 -7 -63 -25z"/>
<path d="M20522 20376 c-33 -31 -37 -39 -37 -85 0 -69 34 -104 130 -132 264
-76 522 -175 752 -288 1144 -561 1943 -1573 2268 -2870 144 -577 187 -1231
120 -1836 -114 -1030 -501 -2027 -1124 -2890 -421 -585 -983 -1123 -1571
-1507 -267 -174 -647 -377 -869 -463 -57 -23 -69 -31 -55 -37 21 -8 605 -125
674 -134 41 -5 58 0 200 68 778 373 1483 938 2046 1638 557 694 935 1434 1173
2296 112 404 174 779 202 1204 15 228 6 706 -16 910 -131 1207 -610 2239
-1396 3005 -326 317 -649 549 -1040 745 -407 205 -775 324 -1199 390 -184 29
-212 27 -258 -14z"/>
<path d="M38805 19677 c-56 -56 -48 -153 17 -188 10 -5 80 -27 156 -49 581
-165 1108 -440 1564 -817 132 -110 408 -387 523 -526 422 -509 717 -1134 829
-1757 44 -247 51 -331 51 -625 0 -310 -7 -382 -55 -622 -70 -345 -154 -594
-285 -853 -403 -791 -1110 -1381 -1965 -1639 -321 -97 -597 -140 -960 -148
-267 -6 -431 6 -705 52 -772 130 -1480 492 -2054 1050 -339 330 -574 652 -785
1072 -196 392 -316 804 -367 1263 -19 171 -17 564 5 740 70 586 263 1103 589
1582 73 109 79 121 74 155 -9 52 -46 83 -99 83 -48 0 -71 -22 -215 -200 -410
-509 -661 -1118 -749 -1815 -26 -201 -26 -694 -1 -890 83 -646 298 -1224 654
-1765 789 -1197 2097 -1929 3515 -1966 1213 -32 2306 434 3077 1312 494 562
769 1165 890 1954 117 758 -27 1608 -397 2340 -468 926 -1267 1657 -2229 2039
-307 121 -734 232 -960 248 l-82 6 -36 -36z"/>
<path d="M19155 18769 c-674 -63 -1340 -344 -1895 -798 -133 -108 -366 -336
-479 -466 -229 -265 -422 -559 -579 -882 -57 -117 -67 -146 -67 -191 0 -48 4
-57 32 -82 64 -58 150 -45 195 29 587 970 1489 1625 2476 1796 316 55 627 55
938 0 308 -54 547 -143 814 -304 435 -262 777 -646 982 -1103 168 -373 251
-744 265 -1178 45 -1415 -857 -2832 -2164 -3399 -208 -90 -505 -174 -753 -212
-173 -26 -492 -36 -656 -20 -441 44 -878 206 -1239 460 -227 160 -485 419
-652 654 -30 42 -63 82 -73 87 -35 19 -78 11 -112 -19 -48 -43 -44 -83 22
-201 433 -776 1169 -1286 2053 -1421 172 -27 533 -36 718 -20 694 63 1367 340
1939 798 639 512 1110 1194 1368 1983 87 265 140 507 178 805 23 175 26 663 6
825 -34 276 -83 503 -157 730 -233 713 -636 1256 -1220 1644 -517 344 -1045
500 -1678 495 -95 -1 -212 -5 -262 -10z"/>
<path d="M44355 16030 c-11 -4 -31 -20 -45 -35 l-25 -27 -6 -376 c-4 -207 -12
-426 -18 -487 -79 -765 -255 -1388 -571 -2015 -550 -1090 -1403 -1911 -2539
-2443 -889 -416 -1950 -590 -2966 -487 -969 99 -1896 420 -2763 959 -564 349
-1188 913 -1633 1476 -396 499 -742 1116 -992 1769 -25 65 -54 127 -63 137
-39 44 -124 30 -154 -26 -18 -33 -7 -101 50 -310 326 -1188 979 -2218 1955
-3081 880 -778 2092 -1340 3285 -1524 293 -46 495 -61 850 -67 764 -12 1346
75 2040 307 864 288 1604 743 2236 1374 200 201 331 351 497 571 631 836 988
1772 1089 2850 17 180 17 729 0 895 -24 234 -54 435 -72 477 -27 61 -94 89
-155 63z"/>
<path d="M53830 14766 c-1010 -118 -2033 -795 -2857 -1891 -583 -775 -1034
-1731 -1289 -2729 -51 -202 -115 -498 -109 -505 6 -6 679 99 686 107 3 4 23
79 44 167 230 972 658 1916 1214 2675 650 888 1427 1483 2189 1675 195 49 283
59 517 60 225 0 338 -14 490 -60 27 -8 50 -13 52 -11 2 1 -9 36 -23 77 -14 41
-43 141 -64 223 -22 82 -41 150 -44 153 -7 8 -118 31 -226 48 -145 22 -437 27
-580 11z"/>
<path d="M55820 13731 c-41 -43 -88 -87 -104 -98 l-29 -20 75 -99 c42 -54 101
-138 131 -186 50 -77 61 -89 98 -99 51 -16 112 3 142 43 35 47 27 92 -37 218
-63 123 -178 313 -192 317 -5 1 -43 -33 -84 -76z"/>
<path d="M48680 11793 c-31 -22 -67 -63 -160 -182 -322 -413 -583 -931 -755
-1496 -74 -244 -178 -725 -161 -742 6 -6 177 13 482 54 l122 16 11 103 c72
635 276 1338 563 1936 104 216 107 237 43 296 -28 26 -43 32 -78 32 -24 0 -53
-7 -67 -17z"/>
</g>
</svg>
